mtllib trunk.mtl
o trunk
v 0.20729 -0.10308 0.00379
v 0.20729 -0.10308 0.00379
v 0.15844 -0.09565 -0.00197
v 0.14391 -0.13597 -0.00389
v 0.18936 -0.15979 0.00137
v 0.15661 -0.09669 0.23904
v 0.16537 -0.14168 0.24895
v 0.16537 -0.14168 0.24895
v 0.11386 -0.14478 0.22071
v 0.11478 -0.09801 0.24251
v 0.06938 -0.14608 0.42302
v 0.08177 -0.11508 0.41097
v 0.08177 -0.11508 0.41097
v 0.04474 -0.09229 0.42075
v 0.02354 -0.12540 0.38544
v 0.04182 -0.15550 0.41907
v 0.04251 -0.05713 0.68016
v 0.08512 -0.02348 0.67019
v 0.05180 -0.00315 0.76073
v 0.09516 -0.05422 0.70238
v 0.09516 -0.05422 0.70238
v 0.01969 0.03053 0.91160
v 0.04216 -0.04054 0.80587
v 0.06948 0.01235 0.88801
v 0.06948 0.01235 0.88801
v 0.06860 0.04730 0.89339
v 0.06860 0.04730 0.89339
v 0.02782 0.08345 0.91302
v 0.02589 0.03571 0.86175
v -0.06619 0.08247 0.96845
v -0.02863 0.08969 0.98772
v -0.02863 0.08969 0.98772
v -0.06833 0.03361 1.00453
v -0.09609 0.04209 1.06991
v -0.09609 0.04209 1.06991
v -0.13146 0.02219 1.05217
v -0.10335 -0.00240 1.22368
v -0.10335 -0.00240 1.22368
v -0.09600 -0.03926 1.22233
v -0.12900 -0.03393 1.20103
v -0.11657 -0.01786 1.40051
v -0.07801 -0.01642 1.53343
v -0.09204 0.01867 1.53963
v -0.06356 0.00483 1.50981
v -0.06356 0.00483 1.50981
v -0.08404 -0.03571 1.65509
v -0.05413 -0.02144 1.67200
v -0.05413 -0.02144 1.67200
v -0.05581 -0.05232 1.65653
v 0.02454 -0.06404 1.76919
v 0.02454 -0.06404 1.76919
v 0.00046 -0.06522 1.78022
v 0.01712 -0.08717 1.76761
v -0.00234 -0.07902 1.74641
v -0.00234 -0.07902 1.74641
v 0.02306 -0.06992 1.76798
v -0.04024 -0.11843 1.80303
v -0.04024 -0.11843 1.80303
v -0.00309 -0.05596 1.76182
v -0.05505 -0.09780 1.81889
v -0.09131 -0.12765 1.85396
v -0.09131 -0.12765 1.85396
v -0.20360 -0.06909 1.89583
v -0.18505 -0.09683 1.88383
v -0.18505 -0.09683 1.88383
v -0.20982 -0.06429 1.86356
v -0.39116 0.02515 1.79445
v -0.39116 0.02515 1.79445
v -0.34401 0.01944 1.82430
v -0.38954 0.04712 1.77896
v -0.42457 0.05417 1.80608
v -0.56365 0.00199 1.82468
v -0.56365 0.00199 1.82468
v -0.54044 0.04169 1.81251
v -0.60331 -0.00502 1.81898
v -0.65109 -0.02230 1.87435
v -0.64546 -0.04701 1.88512
v -0.64546 -0.04701 1.88512
v -0.68148 -0.04066 1.87343
v -0.80189 -0.03510 1.90216
v -0.80189 -0.03510 1.90216
v -0.80966 -0.01588 1.89250
v -0.77092 -0.04012 1.88352
v -0.77092 -0.04012 1.88352
v -0.92051 -0.02873 1.81368
v -0.92051 -0.02873 1.81368
v -0.95762 0.00187 1.78952
v -0.94583 -0.00049 1.82096
v -1.10167 0.02476 1.84175
v -1.10167 0.02476 1.84175
v -1.07871 0.02274 1.81524
v -1.07871 0.02274 1.81524
v -1.03708 0.04105 1.81110
v -1.14698 0.03533 1.85529
v -1.19470 -0.01734 1.88676
v -1.20673 -0.01869 1.86315
v -1.23769 -0.06063 1.87076
v -1.23769 -0.06063 1.87076
v -1.31946 -0.06821 1.82150
v -1.31946 -0.06821 1.82150
v -1.32793 -0.05062 1.83234
v -1.40585 -0.04461 1.81166
v -1.45422 -0.00820 1.79202
v -1.45422 -0.00820 1.79202
v -1.45859 0.00691 1.80986
v -1.53910 0.02634 1.82690
v -1.53910 0.02634 1.82690
v -1.54245 0.04136 1.85424
v -1.55885 0.05217 1.84144
v -1.69426 -0.00235 1.89797
v -1.69426 -0.00235 1.89797
v -1.68869 -0.00237 1.91898
v -1.71735 -0.03278 1.89573
v -1.71735 -0.03278 1.89573
v -1.89608 -0.03175 1.79462
v -1.87596 -0.02126 1.79361
v -1.87596 -0.02126 1.79361
v -1.87568 -0.02422 1.81525
v -1.98171 0.04099 1.79427
v -1.98171 0.04099 1.79427
v -2.03544 0.05641 1.84511
v -2.05795 0.05045 1.83958
v -2.05795 0.05045 1.83958
v -2.08769 0.06371 1.87501
v -2.22308 -0.01275 1.91346
v -2.22308 -0.01275 1.91346
v -2.21875 -0.02539 1.92996
v -2.21922 -0.03237 1.90736
v -2.35112 -0.06987 1.82762
v -2.34895 -0.05302 1.82499
v -2.34895 -0.05302 1.82499
v -2.37020 -0.05334 1.83173
v -2.48290 0.01854 1.76991
v -2.48290 0.01854 1.76991
v -2.48984 0.01579 1.78536
v -2.50456 0.04593 1.78748
v -2.50456 0.04593 1.78748
v -2.67330 0.08887 1.89424
v -2.67330 0.08887 1.89424
v -2.64308 0.07392 1.86713
v -2.65663 0.08257 1.89841
v -2.75482 0.00406 1.92855
v -2.85462 -0.04503 1.89869
v -2.85462 -0.04503 1.89869
v -2.82732 -0.05073 1.92018
v -2.89406 -0.06972 1.84322
v -2.98875 -0.04628 1.75617
v -2.99111 -0.03493 1.77159
v -2.99111 -0.03493 1.77159
v -2.99327 -0.05639 1.77455
v -3.00619 0.00424 1.75486
v -3.00619 0.00424 1.75486
v -3.00671 0.00180 1.74838
v -3.01190 0.00136 1.75287
v -0.00114 -0.06628 1.76142
v -0.00114 -0.06628 1.76142
v 0.00557 -0.08492 1.76610
v 0.06979 -0.04311 1.78367
v 0.00991 -0.06768 1.74277
v 0.12156 0.03854 1.87284
v 0.11390 0.05434 1.84916
v 0.11390 0.05434 1.84916
v 0.14233 0.03807 1.86062
v 0.21006 0.05823 1.91844
v 0.21006 0.05823 1.91844
v 0.25395 0.02544 1.91351
v 0.22382 0.05436 1.89381
v 0.35083 0.00723 1.88724
v 0.35083 0.00723 1.88724
v 0.39671 -0.03643 1.82014
v 0.36338 -0.00228 1.84111
v 0.44406 -0.00541 1.78057
v 0.44406 -0.00541 1.78057
v 0.51644 0.01161 1.74537
v 0.48648 0.02633 1.73949
v 0.64466 0.06854 1.81195
v 0.64466 0.06854 1.81195
v 0.65130 0.08535 1.79674
v 0.72549 0.06588 1.84318
v 0.77727 0.04173 1.90848
v 0.77727 0.04173 1.90848
v 0.77960 0.01893 1.89144
v 0.83982 0.00796 1.90679
v 0.85788 -0.01821 1.88880
v 0.87727 -0.04824 1.89548
v 0.87727 -0.04824 1.89548
v 0.98053 -0.06759 1.84473
v 0.98053 -0.06759 1.84473
v 0.98320 -0.04573 1.82723
v 1.03118 -0.04709 1.78677
v 1.11605 0.01309 1.79469
v 1.11605 0.01309 1.79469
v 1.09030 0.00964 1.77249
v 1.17300 0.03628 1.78731
v 1.19255 0.06697 1.81255
v 1.21904 0.04739 1.83948
v 1.21904 0.04739 1.83948
v 1.28985 0.03867 1.86569
v 1.28619 0.05416 1.87736
v 1.34587 0.00384 1.90762
v 1.34587 0.00384 1.90762
v 1.39334 -0.03875 1.88770
v 1.39334 -0.03875 1.88770
v 1.41238 -0.02910 1.88659
v 1.50000 -0.07802 1.80575
v 1.50000 -0.07802 1.80575
v 1.45260 -0.07262 1.86698
v 1.45260 -0.07262 1.86698
v 1.51562 -0.05961 1.80937
v 1.63170 -0.03624 1.76232
v 1.63170 -0.03624 1.76232
v 1.64671 -0.00985 1.74916
v 1.64524 -0.00390 1.76903
v 1.78986 0.06663 1.84738
v 1.80363 0.04804 1.85535
v 1.80363 0.04804 1.85535
v 1.79971 0.04893 1.87495
v 1.92119 -0.01200 1.93332
v 1.93693 -0.04051 1.91395
v 1.93693 -0.04051 1.91395
v 1.95483 -0.05866 1.92787
v 2.05190 -0.06481 1.85339
v 2.05486 -0.07401 1.83278
v 2.05486 -0.07401 1.83278
v 2.09304 -0.07225 1.81312
v 2.09304 -0.07225 1.81312
v 2.16647 -0.00792 1.77840
v 2.18312 0.02005 1.76244
v 2.18312 0.02005 1.76244
v 2.18727 -0.00113 1.76658
v 2.27583 0.08968 1.81676
v 2.27583 0.08968 1.81676
v 2.32595 0.08893 1.88710
v 2.27868 0.07060 1.81399
v 2.36251 0.08209 1.91513
v 2.36251 0.08209 1.91513
v 2.40163 0.04441 1.93868
v 2.40163 0.04441 1.93868
v 2.44363 -0.01929 1.96387
v 2.49531 -0.07602 1.94421
v 2.55775 -0.10308 1.91318
v 2.51916 -0.07817 1.92025
v 2.51916 -0.07817 1.92025
v 2.61078 -0.09264 1.84203
v 2.61078 -0.09264 1.84203
v 2.59534 -0.10945 1.85183
v 2.70211 -0.05607 1.77751
v 2.68671 -0.05854 1.76023
v 2.69808 -0.02856 1.77499
v 2.69808 -0.02856 1.77499
v 2.78462 0.05894 1.77963
v 2.78462 0.05894 1.77963
v 2.79067 0.05362 1.78004
v 2.78883 0.05616 1.77310
v -0.05717 0.05836 0.97949
v -0.05717 0.05836 0.97949
v -0.05252 0.07829 0.99810
v -0.15550 0.03616 1.01706
v -0.12427 0.03558 0.99416
v -0.12427 0.03558 0.99416
v -0.13622 0.05976 1.00445
v -0.05971 0.08374 0.98114
v -0.22602 -0.03467 0.95892
v -0.23986 -0.05025 0.91408
v -0.23986 -0.05025 0.91408
v -0.25594 -0.02280 0.91351
v -0.26829 -0.02337 0.87289
v -0.34310 -0.01774 0.84409
v -0.34310 -0.01774 0.84409
v -0.38925 0.03710 0.84842
v -0.37162 0.02330 0.82445
v -0.43444 0.03553 0.84818
v -0.43444 0.03553 0.84818
v -0.49964 0.08405 0.87794
v -0.53365 0.06045 0.90946
v -0.53365 0.06045 0.90946
v -0.56766 0.07723 0.96108
v -0.65684 -0.00090 0.99580
v -0.65684 -0.00090 0.99580
v -0.61407 0.04891 0.96180
v -0.61407 0.04891 0.96180
v -0.69235 -0.00541 1.01262
v -0.73464 -0.02620 0.98807
v -0.76636 -0.06268 0.97761
v -0.76636 -0.06268 0.97761
v -0.88272 -0.06003 0.93336
v -0.89465 -0.03277 0.92112
v -0.94049 -0.02600 0.88590
v -0.94049 -0.02600 0.88590
v -0.97336 0.00955 0.90582
v -0.98815 0.04566 0.89051
v -0.98815 0.04566 0.89051
v -1.03695 0.05205 0.90362
v -1.03695 0.05205 0.90362
v -1.08329 0.06145 0.94081
v -1.14586 0.06624 0.94555
v -1.14586 0.06624 0.94555
v -1.14741 0.07181 0.96469
v -1.17617 0.03490 0.97231
v -1.26388 -0.00458 0.94999
v -1.26388 -0.00458 0.94999
v -1.29672 -0.03047 0.95478
v -1.32353 -0.05378 0.92119
v -1.38863 -0.03746 0.86849
v -1.38863 -0.03746 0.86849
v -1.44231 0.00822 0.86943
v -1.44231 0.00822 0.86943
v -1.45391 -0.00781 0.87155
v -1.53473 0.05681 0.89060
v -1.53473 0.05681 0.89060
v -1.58361 0.05048 0.94149
v -1.54947 0.05881 0.93342
v -1.62276 0.04261 1.00005
v -1.62276 0.04261 1.00005
v -1.64076 0.01090 1.00925
v -1.70087 -0.01816 1.02037
v -1.72342 -0.02347 1.03128
v -1.72342 -0.02347 1.03128
v -1.71853 -0.04334 1.03346
v -1.85801 -0.10200 0.92532
v -1.82460 -0.09456 0.97835
v -1.82460 -0.09456 0.97835
v -1.84770 -0.11483 0.94282
v -1.93359 -0.08768 0.87710
v -1.93359 -0.08768 0.87710
v -1.96977 -0.05781 0.82761
v -1.99218 -0.03364 0.83697
v -1.99218 -0.03364 0.83697
v -2.04252 -0.00184 0.81943
v -2.07728 0.06248 0.83740
v -2.11042 0.07859 0.86861
v -2.11042 0.07859 0.86861
v -2.14737 0.10338 0.88887
v -2.15573 0.11482 0.92985
v -2.15573 0.11482 0.92985
v -2.22198 0.06447 1.02688
v -2.22349 0.07175 1.03538
v -2.22349 0.07175 1.03538
v -2.25921 0.04441 1.05067
v -2.30710 -0.01819 1.08356
v -2.30710 -0.01819 1.08356
v -2.35543 -0.04357 1.07592
v -2.35186 -0.05475 1.05758
v -2.44686 -0.10771 1.02132
v -2.44686 -0.10771 1.02132
v -2.47647 -0.09191 0.99356
v -2.47312 -0.10159 0.97713
v -2.58276 -0.06588 0.88389
v -2.58430 -0.07483 0.88289
v -2.58430 -0.07483 0.88289
v -2.57901 -0.07096 0.87865
v 0.05752 -0.01421 0.76282
v 0.05752 -0.01421 0.76282
v 0.05139 -0.03914 0.77270
v 0.07259 -0.03862 0.75613
v 0.15111 0.04077 0.91247
v 0.15111 0.04077 0.91247
v 0.17890 0.02278 0.92524
v 0.20260 0.01877 0.98034
v 0.26076 0.02883 0.99661
v 0.26076 0.02883 0.99661
v 0.27423 0.00905 0.97458
v 0.36301 -0.00477 0.96901
v 0.36301 -0.00477 0.96901
v 0.32417 -0.02272 0.98266
v 0.38101 -0.00913 0.92635
v 0.38101 -0.00913 0.92635
v 0.40536 -0.03112 0.91238
v 0.46052 0.01136 0.87136
v 0.44548 0.01357 0.84969
v 0.52007 0.07497 0.83913
v 0.52007 0.07497 0.83913
v 0.53266 0.05724 0.86329
v 0.60519 0.07962 0.85485
v 0.61948 0.09592 0.88898
v 0.61948 0.09592 0.88898
v 0.72450 0.04563 0.92393
v 0.69652 0.08542 0.90140
v 0.77652 0.02486 0.96322
v 0.77652 0.02486 0.96322
v 0.84465 -0.05068 0.95704
v 0.85974 -0.03023 0.95081
v 0.85974 -0.03023 0.95081
v 0.90329 -0.06647 0.91627
v 0.95043 -0.04261 0.89074
v 0.96345 -0.04596 0.91191
v 0.96345 -0.04596 0.91191
v 1.02942 -0.02483 0.86825
v 1.06425 0.01331 0.89099
v 1.06425 0.01331 0.89099
v 1.08707 0.04517 0.87806
v 1.14511 0.05735 0.92797
v 1.17015 0.07253 0.92055
v 1.18372 0.08472 0.95697
v 1.18372 0.08472 0.95697
v 1.28343 0.05597 0.97831
v 1.27478 0.04159 0.98463
v 1.35251 0.02106 0.99239
v 1.35251 0.02106 0.99239
v 1.40122 -0.02356 0.97028
v 1.40122 -0.02356 0.97028
v 1.44720 -0.02866 0.91665
v 1.49192 -0.04309 0.88266
v 1.48157 -0.03699 0.91340
v 1.48157 -0.03699 0.91340
v 1.53692 -0.00193 0.85206
v 1.58573 0.02189 0.86856
v 1.58573 0.02189 0.86856
v 1.64878 0.03736 0.86820
v 1.67573 0.06136 0.88312
v 1.70117 0.05539 0.92182
v 1.70117 0.05539 0.92182
v 1.82216 -0.00650 0.97488
v 1.80894 0.00424 0.98749
v 1.80894 0.00424 0.98749
v 1.78828 0.03800 0.96694
v 1.88374 -0.03447 0.97055
v 1.90657 -0.05805 0.97492
v 1.90657 -0.05805 0.97492
v 1.95433 -0.06878 0.93153
v 2.03516 -0.05825 0.90476
v 2.02243 -0.07174 0.89697
v 2.02243 -0.07174 0.89697
v 2.10401 0.00220 0.86442
v 2.14995 0.01356 0.86078
v 2.14995 0.01356 0.86078
v 2.16330 0.03075 0.88453
v 2.22658 0.06624 0.90089
v 2.30181 0.05100 0.95618
v 2.30181 0.05100 0.95618
v 2.29084 0.05733 0.97052
v 2.31061 0.06104 0.97119
v 2.41323 -0.02468 0.98369
v 2.40781 -0.04280 0.97848
v 2.40781 -0.04280 0.97848
v 2.45051 -0.07169 0.98165
v 2.49404 -0.06914 0.94168
v 2.49771 -0.08568 0.92684
v 2.49771 -0.08568 0.92684
v 2.59349 -0.06796 0.86144
v 2.59349 -0.06796 0.86144
v 2.64004 -0.03742 0.84901
v 2.61257 -0.03498 0.86154
v 2.70264 0.04083 0.85117
v 2.70264 0.04083 0.85117
v 2.71824 0.06270 0.87757
v 2.80472 0.08760 0.94151
v 2.82090 0.10017 0.95728
v 2.84798 0.09087 0.95487
v 2.84798 0.09087 0.95487
v 2.96274 0.02631 0.98661
v 2.95638 0.01851 0.98430
v 2.95908 0.02236 0.97714
v 2.95908 0.02236 0.97714
vn 0.2561 0.9662 0.0289
vn 0.9459 -0.3038 0.1139
vn -0.4920 0.8651 -0.0977
vn -0.9152 -0.3668 -0.1671
vn 0.3920 -0.9195 0.0286
vn 0.6023 0.7745 0.1932
vn 0.9155 0.2480 0.3168
vn 0.1881 -0.9803 0.0607
vn -0.6821 -0.7089 -0.1793
vn -0.5635 0.7937 -0.2291
vn 0.6025 -0.7555 0.2574
vn 0.5985 0.7925 0.1173
vn 0.9217 -0.2545 0.2929
vn -0.2556 0.9479 -0.1904
vn -0.9649 -0.0072 -0.2626
vn -0.4046 -0.9034 0.1420
vn -0.9853 -0.1662 0.0403
vn 0.5862 0.7843 -0.2032
vn -0.5528 0.7717 -0.3144
vn 0.9564 0.2915 -0.0202
vn 0.3523 -0.8933 0.2790
vn -0.5873 -0.7758 -0.2307
vn -0.3414 -0.8845 0.3180
vn 0.9970 0.0432 0.0644
vn 0.2701 -0.7241 0.6346
vn 0.7587 0.6328 -0.1546
vn 0.6712 -0.0961 0.7350
vn 0.2808 0.9512 -0.1277
vn -0.9365 0.0756 -0.3425
vn -0.7291 0.5316 -0.4311
vn -0.1293 0.9893 0.0682
vn 0.6791 -0.2620 0.6858
vn 0.2297 -0.9440 -0.2368
vn -0.5295 0.8252 0.1965
vn 0.8865 0.3421 0.3115
vn -0.9373 -0.1617 -0.3086
vn 0.1249 0.9868 0.1029
vn 0.9806 0.1959 -0.0124
vn 0.6554 -0.7529 -0.0606
vn -0.7050 -0.6957 -0.1378
vn -0.9403 -0.3319 0.0753
vn 0.5115 -0.8398 -0.1817
vn -0.4081 0.8977 0.1664
vn 0.4194 0.9076 -0.0208
vn 0.8278 -0.5552 -0.0801
vn -0.9381 -0.1537 0.3103
vn -0.5019 0.7153 0.4862
vn 0.9276 0.1258 -0.3518
vn 0.3491 -0.9022 -0.2532
vn 0.1040 0.9391 0.3275
vn 0.7979 -0.1475 -0.5845
vn -0.6976 0.2873 0.6563
vn 0.1507 -0.9107 -0.3846
vn 0.5026 -0.8301 -0.2413
vn -0.8143 0.2313 -0.5324
vn 0.8008 -0.1774 0.5720
vn 0.6835 -0.5267 0.5054
vn -0.6711 -0.1069 -0.7337
vn -0.4594 0.8621 0.2137
vn -0.4501 0.2131 -0.8671
vn 0.4959 0.2004 0.8449
vn -0.4252 -0.7103 -0.5610
vn -0.1434 0.3024 0.9423
vn 0.0151 -0.3883 0.9214
vn -0.3496 -0.6725 -0.6523
vn 0.3922 0.4194 -0.8187
vn -0.3260 -0.5852 0.7425
vn -0.0151 -0.5732 -0.8193
vn 0.0087 0.6242 0.7812
vn 0.2958 0.4864 -0.8222
vn 0.0574 0.8022 0.5943
vn 0.3906 0.0572 0.9188
vn 0.1820 -0.9463 -0.2672
vn -0.3189 0.9473 -0.0315
vn -0.4776 -0.2072 -0.8538
vn -0.1065 0.8669 0.4869
vn 0.2301 0.3878 0.8925
vn 0.0360 -0.8276 -0.5601
vn -0.1272 -0.4844 -0.8655
vn -0.0943 0.2204 0.9708
vn -0.1125 -0.9905 0.0794
vn 0.0207 0.9067 0.4212
vn -0.0562 -0.9837 0.1711
vn -0.0179 -0.0167 -0.9997
vn -0.4234 -0.5625 0.7101
vn 0.2826 -0.4055 -0.8693
vn 0.1591 0.1957 -0.9677
vn -0.0008 0.5557 0.8314
vn 0.3410 0.1137 0.9331
vn 0.4183 -0.8314 0.3659
vn -0.1718 -0.9851 -0.0076
vn -0.3064 0.3375 -0.8901
vn 0.0477 0.9644 -0.2601
vn -0.2270 0.9615 0.1547
vn 0.0233 0.1002 0.9947
vn -0.3808 0.6311 -0.6758
vn -0.2639 -0.1474 0.9532
vn 0.4011 -0.4416 -0.8026
vn -0.2797 -0.8067 0.5206
vn 0.2603 0.4852 -0.8348
vn 0.1394 0.9496 -0.2808
vn -0.3725 -0.9232 0.0943
vn -0.4419 -0.8028 -0.4002
vn 0.3369 0.7448 -0.5760
vn 0.4161 0.8821 0.2208
vn 0.0473 -0.8628 0.5033
vn -0.2961 0.2865 -0.9112
vn 0.5435 0.1845 0.8189
vn -0.1698 0.9345 -0.3127
vn -0.3405 0.2867 -0.8955
vn -0.1429 0.9746 -0.1722
vn 0.0533 0.2126 0.9757
vn -0.3810 -0.4620 0.8009
vn 0.4969 -0.3175 -0.8077
vn -0.2134 -0.8669 -0.4504
vn 0.2498 -0.5551 -0.7934
vn 0.2633 0.9597 0.0984
vn -0.3024 0.1866 0.9347
vn -0.4515 -0.5350 -0.7141
vn 0.4498 0.8679 0.2109
vn 0.1816 0.6624 0.7268
vn 0.1512 -0.9885 0.0057
vn -0.2473 0.8209 -0.5147
vn -0.0172 0.8946 0.4465
vn -0.0071 0.2710 -0.9626
vn -0.4000 0.7214 0.5654
vn -0.0189 -0.2374 0.9712
vn 0.3862 -0.7782 -0.4953
vn 0.0321 -0.9649 -0.2608
vn 0.4178 -0.1742 -0.8917
vn 0.0125 0.9988 -0.0484
vn -0.4231 -0.0911 0.9015
vn -0.4899 -0.7059 -0.5116
vn 0.5564 0.7134 -0.4261
vn -0.5664 -0.7772 0.2740
vn -0.5008 0.1508 -0.8523
vn 0.5044 0.3111 0.8055
vn -0.4752 0.1903 -0.8590
vn -0.0182 0.5672 0.8234
vn 0.8550 -0.1134 -0.5060
vn 0.5726 0.2881 0.7676
vn -0.2240 0.2231 -0.9487
vn -0.2426 0.9215 -0.3032
vn -0.6260 -0.0422 0.7787
vn 0.1852 -0.5052 0.8429
vn 0.4466 -0.8391 -0.3105
vn 0.1203 -0.2661 -0.9564
vn 0.7876 0.5345 -0.3066
vn -0.5494 0.1704 0.8180
vn -0.6599 -0.7339 0.1609
vn 0.9411 0.2842 -0.1829
vn -0.4164 0.2167 0.8830
vn 0.3851 -0.0371 -0.9221
vn -0.9742 -0.1393 0.1774
vn -0.6672 -0.0108 0.7448
vn -0.5241 0.7678 -0.3684
vn 0.0290 -0.8934 0.4483
vn 0.7998 -0.4564 -0.3900
vn 0.2061 0.0981 -0.9736
vn -0.3973 -0.1557 0.9044
vn -0.6877 0.4814 0.5435
vn 0.4288 0.3734 -0.8226
vn 0.5380 -0.6870 -0.4885
vn -0.2684 -0.3684 0.8901
vn 0.1632 0.9845 -0.0636
vn -0.1188 -0.7245 0.6789
vn 0.3255 0.5832 -0.7442
vn 0.1170 -0.7659 0.6322
vn 0.2603 0.9583 -0.1175
vn 0.1109 -0.9759 -0.1880
vn -0.4128 0.5768 -0.7049
vn 0.3971 0.3423 0.8516
vn 0.4055 0.5149 0.7553
vn 0.3307 -0.6716 -0.6630
vn -0.4992 0.4229 -0.7563
vn -0.3138 -0.4351 0.8439
vn -0.3829 0.7151 0.5848
vn 0.1542 0.8745 -0.4599
vn 0.5076 0.5837 -0.6338
vn -0.5133 -0.5469 0.6615
vn 0.4182 0.9020 0.1071
vn -0.3590 -0.9331 -0.0214
vn 0.4461 0.7058 0.5503
vn -0.1557 0.1060 -0.9821
vn -0.4625 -0.4992 -0.7327
vn 0.4083 0.0892 0.9085
vn -0.2945 -0.7905 -0.5370
vn 0.3035 0.5685 0.7647
vn -0.1072 0.9603 0.2577
vn -0.0549 -0.6195 -0.7831
vn 0.3813 -0.6834 0.6225
vn -0.4977 0.6903 0.5251
vn -0.1851 0.5163 -0.8362
vn 0.3725 -0.2372 -0.8972
vn -0.0400 0.9945 -0.0964
vn -0.1572 -0.9453 0.2859
vn -0.4837 0.3733 0.7916
vn 0.4177 0.0061 -0.9086
vn 0.0454 0.9018 0.4298
vn -0.5801 -0.8079 0.1040
vn 0.4296 0.7266 0.5363
vn -0.2533 -0.1764 -0.9512
vn 0.2166 -0.2049 0.9545
vn 0.3028 0.8172 0.4905
vn -0.4966 0.3808 -0.7800
vn 0.3907 -0.8400 0.3766
vn -0.5548 -0.7485 -0.3634
vn 0.5979 0.1104 0.7940
vn -0.3589 0.8576 -0.3683
vn 0.0446 -0.4659 -0.8837
vn 0.2103 -0.2873 0.9345
vn 0.0909 0.2427 -0.9658
vn -0.5249 0.7442 0.4131
vn 0.0968 0.9585 -0.2683
vn 0.5855 0.0785 -0.8069
vn -0.1060 -0.9922 0.0649
vn -0.3887 0.0270 0.9210
vn 0.0593 0.6117 0.7888
vn -0.0867 0.5450 -0.8339
vn -0.3896 -0.7745 -0.4983
vn 0.0395 -0.7264 0.6862
vn 0.7326 0.3490 0.5843
vn -0.4780 0.7138 -0.5119
vn 0.2079 -0.9074 0.3652
vn -0.4557 -0.0435 -0.8891
vn 0.6028 -0.4396 0.6659
vn 0.3257 0.0782 0.9422
vn -0.6165 0.6299 0.4723
vn 0.2552 -0.1217 -0.9592
vn 0.3665 -0.7252 -0.5829
vn -0.6673 0.5682 0.4815
vn 0.6112 0.2020 -0.7653
vn -0.4866 0.6847 0.5427
vn 0.6915 -0.2979 -0.6581
vn -0.6085 -0.0430 0.7924
vn 0.7068 0.3338 -0.6237
vn -0.4086 0.0974 0.9075
vn 0.6504 0.4393 -0.6196
vn -0.1290 -0.1203 0.9843
vn -0.2733 -0.7694 0.5773
vn 0.3183 -0.5642 0.7618
vn -0.1133 0.1048 -0.9880
vn -0.6901 -0.2799 -0.6673
vn -0.4065 0.9031 -0.1384
vn -0.7316 0.3332 -0.5947
vn -0.0970 -0.8857 -0.4539
vn 0.7648 -0.5753 0.2900
vn -0.1911 -0.3628 -0.9120
vn 0.0979 0.1051 0.9896
vn -0.5732 0.5265 -0.6279
vn -0.0581 0.0233 0.9980
vn -0.5562 0.5643 -0.6101
vn 0.6445 -0.5330 0.5483
vn 0.1533 -0.0042 -0.9882
vn 0.3692 -0.6787 0.6349
vn -0.2264 0.0404 -0.9732
vn 0.1521 0.2939 0.9436
vn -0.2847 -0.0362 0.9579
vn 0.3971 -0.7471 0.5331
vn -0.0383 0.3550 -0.9341
vn -0.3019 0.9522 0.0468
vn -0.3429 0.8452 -0.4100
vn -0.2740 -0.6209 0.7344
vn -0.3214 -0.8593 0.3978
vn 0.6198 0.2168 -0.7542
vn 0.2202 0.9749 -0.0325
vn 0.6667 0.0994 -0.7387
vn -0.5110 -0.4603 0.7259
vn 0.2045 -0.3523 -0.9133
vn 0.3301 0.7330 0.5948
vn 0.1210 0.2826 -0.9516
vn 0.0257 -0.8229 0.5676
vn -0.3749 -0.0040 -0.9271
vn -0.1748 0.8158 -0.5512
vn 0.0846 -0.9428 0.3225
vn -0.4799 -0.3705 -0.7952
vn 0.2257 0.7069 0.6704
vn 0.4537 -0.3261 0.8293
vn 0.2808 -0.6473 -0.7086
vn -0.5296 -0.1186 -0.8399
vn -0.5493 0.8252 -0.1319
vn -0.1472 0.1484 0.9779
vn 0.0725 0.4542 -0.8880
vn -0.2988 -0.2361 0.9247
vn 0.3460 0.0025 -0.9382
vn -0.2372 -0.9105 0.3388
vn 0.2278 0.8792 0.4184
vn -0.6017 -0.7971 0.0509
vn 0.5774 0.4825 -0.6587
vn -0.2875 -0.2372 0.9280
vn -0.2722 -0.1196 -0.9548
vn 0.4767 0.6312 0.6118
vn -0.4702 -0.7570 -0.4538
vn 0.1310 0.9914 0.0048
vn 0.5796 0.0588 0.8128
vn 0.0048 -0.7209 -0.6930
vn -0.2136 0.9339 -0.2865
vn -0.0392 0.8134 0.5804
vn 0.1844 -0.6079 0.7723
vn 0.1065 0.3686 -0.9235
vn -0.5372 0.7585 0.3689
vn -0.1432 -0.2324 0.9620
vn 0.1676 -0.9838 -0.0636
vn -0.3177 -0.9474 -0.0397
vn 0.4593 0.7007 -0.5460
vn -0.4318 -0.4918 -0.7561
vn 0.1221 0.4217 0.8985
vn 0.3241 0.9263 0.1921
vn -0.5653 -0.4799 -0.6709
vn 0.3763 0.9225 0.0864
vn 0.1160 0.3808 -0.9173
vn 0.1743 0.6586 0.7320
vn -0.6148 0.7134 -0.3362
vn 0.6134 -0.0712 0.7866
vn 0.5217 -0.5682 0.6364
vn -0.1719 -0.0627 -0.9831
vn -0.4092 0.7862 -0.4631
vn -0.0659 0.0926 0.9935
vn 0.3635 -0.6627 0.6547
vn 0.5804 0.1296 -0.8039
vn -0.4911 0.8557 0.1629
vn 0.0876 -0.8768 0.4728
vn 0.0446 -0.9990 -0.0032
vn -0.5166 0.1259 0.8469
vn 0.1095 -0.8358 -0.5380
vn 0.1054 -0.3021 -0.9474
vn 0.7100 0.7021 0.0546
vn 0.1480 0.6469 0.7481
vn -0.3729 -0.4612 -0.8051
vn 0.1502 0.7538 -0.6398
vn 0.3165 -0.6630 0.6784
vn 0.1986 -0.4805 0.8542
vn -0.4367 0.4940 -0.7519
vn -0.6338 0.7116 -0.3032
vn 0.8181 0.0301 0.5743
vn 0.7252 -0.6381 0.2586
vn -0.6157 0.7874 -0.0301
vn 0.7969 -0.3816 0.4684
vn -0.5046 0.7999 0.3250
vn -0.4085 0.6020 0.6861
vn 0.6568 -0.7536 -0.0283
vn -0.7939 -0.5903 0.1454
vn -0.5813 0.3823 0.7183
vn -0.6057 0.1442 0.7825
vn 0.4992 -0.7791 -0.3792
vn -0.5909 0.7333 0.3362
vn 0.3950 -0.4359 -0.8087
vn -0.1842 0.9018 0.3908
vn -0.7129 0.0367 0.7003
vn 0.1952 -0.8586 -0.4740
vn 0.6695 -0.0648 -0.7400
vn -0.8440 0.3638 0.3941
vn 0.6125 0.5370 -0.5800
vn -0.5439 -0.6197 0.5658
vn 0.8154 -0.4661 -0.3434
vn -0.7915 0.0773 0.6063
vn 0.6097 0.5118 -0.6053
vn 0.7578 -0.1216 -0.6410
vn -0.5784 -0.2441 0.7784
vn -0.1512 -0.2169 0.9644
vn 0.2938 0.7728 -0.5626
vn 0.0147 0.1900 -0.9817
vn 0.5056 -0.3317 0.7964
vn 0.1466 0.9837 -0.1045
vn -0.0527 -0.8598 0.5080
vn -0.3641 0.9125 -0.1865
vn -0.6693 -0.0689 -0.7398
vn 0.0991 -0.9929 -0.0651
vn 0.6539 -0.6928 0.3042
vn -0.3575 -0.2080 -0.9105
vn -0.3084 0.5879 0.7479
vn 0.0928 -0.1475 -0.9847
vn -0.1999 0.3067 0.9306
vn 0.2196 0.3507 -0.9104
vn -0.3402 0.0575 0.9386
vn 0.2021 0.7766 -0.5967
vn -0.3497 -0.8614 -0.3683
vn 0.5229 0.8042 -0.2824
vn -0.5727 -0.5969 0.5618
vn 0.5227 0.8399 0.1463
vn -0.2275 -0.7516 0.6191
vn 0.3027 0.0665 0.9508
vn 0.4048 0.8505 -0.3358
vn -0.2205 -0.9080 -0.3562
vn -0.3234 0.3425 -0.8821
vn 0.3697 -0.9053 0.2093
vn -0.1694 0.9520 0.2549
vn 0.2965 -0.6109 -0.7341
vn 0.1961 -0.6448 0.7388
vn -0.3631 0.5778 0.7309
vn -0.1746 0.6958 -0.6967
vn 0.3245 -0.9259 0.1932
vn 0.2642 0.3249 -0.9081
vn -0.3720 -0.3210 0.8710
vn 0.1618 0.9386 -0.3047
vn -0.4818 -0.8710 0.0963
vn 0.5076 0.7291 -0.4591
vn -0.2324 -0.5865 0.7759
vn 0.4820 0.8695 0.1081
vn -0.5147 -0.8105 -0.2798
vn 0.5865 0.2602 0.7670
vn -0.5687 0.1930 -0.7996
vn -0.0918 -0.8593 -0.5031
vn 0.1503 -0.9589 0.2407
vn 0.2439 0.5179 0.8199
vn -0.1447 0.1505 -0.9780
vn 0.0187 0.0899 0.9958
vn -0.3612 0.9201 -0.1514
vn 0.2410 -0.4259 -0.8721
vn 0.1700 0.8375 -0.5193
vn -0.4827 -0.5960 0.6417
vn 0.0305 0.9849 0.1704
vn -0.4381 -0.7678 -0.4675
vn -0.5104 -0.8408 0.1805
vn 0.3440 0.6287 0.6975
vn 0.3173 0.9303 0.1837
vn 0.4643 0.8123 0.3529
vn -0.4668 -0.8377 -0.2835
vn 0.4248 0.4912 0.7604
vn -0.2799 -0.7540 -0.5943
vn 0.5000 -0.3133 0.8074
vn -0.4261 0.0224 -0.9044
vn 0.4168 -0.7163 0.5596
vn -0.5123 0.4878 -0.7068
vn -0.1455 0.6402 -0.7543
vn 0.4322 -0.8269 0.3598
vn -0.4336 -0.0251 0.9008
vn 0.0810 0.8738 -0.4795
vn 0.5670 0.4355 -0.6992
vn -0.4175 -0.9025 0.1058
vn -0.5141 0.1058 0.8512
vn 0.4109 0.8315 0.3738
vn -0.2577 0.8629 0.4347
vn -0.0269 0.3042 -0.9522
vn 0.2261 0.4301 0.8740
vn 0.0638 -0.6297 0.7743
vn -0.3178 0.7509 -0.5789
vn -0.4343 0.5512 -0.7124
vn 0.4414 -0.7018 0.5592
vn -0.5391 0.3142 -0.7814
vn 0.5427 -0.5856 0.6021
vn -0.7683 -0.6397 -0.0242
vn 0.3022 0.9386 -0.1667
vn -0.5140 0.7737 -0.3703
vn 0.6526 -0.5518 -0.5192
vn -0.3913 0.9202 -0.0075
vn -0.3269 -0.6343 0.7006
vn -0.3565 0.7843 0.5077
vn 0.3452 0.9119 0.2219
vn 0.2860 -0.1022 -0.9528
vn 0.3126 0.7139 0.6267
vn -0.5208 -0.7002 0.4884
vn 0.5262 0.6934 -0.4923
vn -0.3587 -0.7586 -0.5439
vt 0.09994 0.00001
vt 1.00000 0.00000
vt 0.33477 0.00029
vt 0.55321 0.00009
vt 0.79985 0.00001
vt 0.15119 0.60676
vt 0.00000 0.62678
vt 0.94696 0.61072
vt 0.60350 0.59867
vt 0.35813 0.65669
vt 0.87280 1.12724
vt 0.05777 1.10732
vt 1.00000 1.11107
vt 0.25698 1.16598
vt 0.50358 1.08257
vt 0.72228 1.13034
vt 0.56873 1.84536
vt 0.15331 1.82219
vt 0.32960 2.07861
vt 0.00000 1.86159
vt 0.94497 1.89566
vt 0.65105 2.50658
vt 0.68771 2.16081
vt 0.00000 2.31169
vt 0.91613 2.38354
vt 0.04323 2.43252
vt 1.00000 2.48969
vt 0.17934 2.54244
vt 0.43480 2.39909
vt 0.37808 2.78940
vt 0.12332 2.76227
vt 1.00000 2.70982
vt 0.71665 2.87943
vt 0.09910 3.05184
vt 1.00000 3.00809
vt 0.40550 3.07117
vt 0.12281 3.50690
vt 1.00000 3.62997
vt 0.78278 3.50442
vt 0.54481 3.45248
vt 0.43283 3.95848
vt 0.66670 4.31633
vt 0.25143 4.31774
vt 0.00000 4.23331
vt 0.94384 4.26107
vt 0.40849 4.62448
vt 0.19964 4.66019
vt 1.00000 4.58628
vt 0.69700 4.66730
vt 0.00000 5.02030
vt 1.00000 5.02030
vt 0.29702 5.01998
vt 0.69812 5.01997
vt 0.00000 0.00000
vt 0.86858 0.00000
vt 0.19988 -0.00019
vt 0.00000 0.16450
vt 0.93590 0.17978
vt 0.50066 0.00000
vt 0.60000 0.20848
vt 0.12899 0.31910
vt 1.00000 0.39454
vt 0.35074 0.58292
vt 0.17349 0.53071
vt 1.00000 0.63083
vt 0.69790 0.60648
vt 0.00000 1.09143
vt 1.00000 1.09143
vt 0.29034 0.98191
vt 0.73600 1.09999
vt 0.44960 1.18748
vt 0.06414 1.50865
vt 1.00000 1.48380
vt 0.50205 1.42720
vt 0.74625 1.57996
vt 0.47526 1.73644
vt 0.10148 1.75283
vt 1.00000 1.74244
vt 0.71470 1.81308
vt 0.18359 2.06931
vt 1.00000 2.17140
vt 0.40000 2.10625
vt 0.00000 1.97438
vt 0.80616 2.02569
vt 0.00000 2.40796
vt 0.89849 2.39755
vt 0.68844 2.49345
vt 0.30019 2.45330
vt 0.10277 2.83262
vt 1.00000 2.92413
vt 0.00000 2.66188
vt 0.86517 2.76086
vt 0.49121 2.67468
vt 0.49760 2.92402
vt 0.27646 3.07717
vt 0.68220 3.09835
vt 0.11832 3.19962
vt 1.00000 3.15806
vt 0.00000 3.42559
vt 0.87967 3.39529
vt 0.50000 3.41018
vt 0.25000 3.58940
vt 0.00000 3.70895
vt 0.87406 3.71874
vt 0.47122 3.74851
vt 0.00000 3.93300
vt 1.00000 3.93300
vt 0.45039 3.97857
vt 0.75000 3.99250
vt 0.00000 4.11430
vt 0.77693 4.33682
vt 0.50000 4.32431
vt 0.12467 4.40757
vt 1.00000 4.40822
vt 0.25000 4.85358
vt 0.00000 4.81983
vt 0.87414 4.82370
vt 0.50000 4.80536
vt 0.00000 5.07581
vt 0.87297 5.08606
vt 0.47022 5.24509
vt 0.05563 5.27575
vt 1.00000 5.30151
vt 0.75000 5.36984
vt 0.00000 5.62112
vt 0.80958 5.71436
vt 0.50000 5.71806
vt 0.25000 5.73078
vt 0.25000 6.07375
vt 0.00000 6.07809
vt 1.00000 6.07809
vt 0.62546 6.10874
vt 0.17240 6.42986
vt 1.00000 6.35509
vt 0.50000 6.44220
vt 0.00000 6.57613
vt 0.83467 6.50589
vt 0.02559 6.94435
vt 1.00000 6.94435
vt 0.33149 6.86960
vt 0.75000 6.92625
vt 0.45100 7.20459
vt 0.00000 7.45328
vt 1.00000 7.45328
vt 0.69893 7.39284
vt 0.33330 7.60778
vt 0.33330 7.89232
vt 0.00000 7.89516
vt 1.00000 7.89516
vt 0.66670 7.86606
vt 0.00000 7.99993
vt 1.00000 7.99993
vt 0.33330 7.99994
vt 0.66670 7.99996
vt 0.09905 0.00078
vt 1.00000 0.00078
vt 0.39588 0.00265
vt 0.54972 0.15307
vt 0.73024 -0.00177
vt 0.22455 0.44534
vt 0.00000 0.42104
vt 0.90644 0.41661
vt 0.50740 0.46574
vt 0.04865 0.65391
vt 1.00000 0.65391
vt 0.29964 0.75350
vt 0.74851 0.68176
vt 0.08863 0.97108
vt 1.00000 0.96174
vt 0.35583 1.14733
vt 0.68614 1.05570
vt 0.00000 1.28970
vt 1.00000 1.28970
vt 0.35313 1.46515
vt 0.70253 1.42198
vt 0.05197 1.81838
vt 1.00000 1.79185
vt 0.73810 1.81194
vt 0.60152 1.99680
vt 0.00000 2.19725
vt 0.94866 2.17455
vt 0.27736 2.19247
vt 0.77242 2.31938
vt 0.49432 2.39399
vt 0.12692 2.46096
vt 1.00000 2.43851
vt 0.15275 2.69893
vt 0.99621 2.78244
vt 0.64461 2.73809
vt 0.29269 2.86234
vt 0.00000 3.08105
vt 0.89733 3.08474
vt 0.49408 3.02550
vt 0.35300 3.21263
vt 0.56585 3.29167
vt 0.00000 3.36514
vt 1.00000 3.36514
vt 0.25000 3.53766
vt 0.65088 3.53223
vt 0.00000 3.61643
vt 0.78359 3.69831
vt 0.12494 3.84372
vt 1.00000 3.84509
vt 0.50000 3.86640
vt 0.18534 4.15175
vt 1.00000 4.22860
vt 0.00000 4.05859
vt 0.82162 3.99779
vt 0.50000 4.18063
vt 0.00000 4.48921
vt 0.95452 4.45966
vt 0.25000 4.51506
vt 0.55996 4.52202
vt 0.37626 4.91420
vt 0.00000 4.95219
vt 1.00000 4.95219
vt 0.75000 4.97194
vt 0.37495 5.29350
vt 0.00000 5.36088
vt 1.00000 5.36088
vt 0.75000 5.40101
vt 0.37245 5.65886
vt 0.03088 5.69116
vt 1.00000 5.67179
vt 0.00000 5.82860
vt 0.80144 5.78119
vt 0.50000 6.00608
vt 0.12553 6.07202
vt 1.00000 6.07006
vt 0.75000 6.04993
vt 0.12668 6.34442
vt 1.00000 6.33399
vt 0.50000 6.52663
vt 0.75000 6.33353
vt 0.20133 6.62053
vt 1.00000 6.51430
vt 0.00000 6.76194
vt 0.95997 6.75026
vt 0.37644 6.91292
vt 0.57745 7.07961
vt 0.25000 7.23368
vt 0.00000 7.13363
vt 0.87463 7.14292
vt 0.00000 7.42447
vt 1.00000 7.42447
vt 0.59102 7.37218
vt 0.33330 7.68748
vt 0.66670 7.67177
vt 0.00000 7.72365
vt 1.00000 7.72365
vt 0.00000 7.99985
vt 1.00000 7.99985
vt 0.33330 7.99995
vt 0.66670 7.99994
vt 0.00000 0.68570
vt 0.89125 0.68570
vt 0.32381 0.68570
vt 0.24143 0.91312
vt 0.00000 0.86584
vt 0.90396 0.86703
vt 0.40858 0.86591
vt 0.60000 0.68445
vt 0.20000 1.14795
vt 0.00000 1.23874
vt 0.96358 1.23752
vt 0.49826 1.25844
vt 0.76535 1.34602
vt 0.04126 1.50024
vt 1.00000 1.52140
vt 0.50987 1.65221
vt 0.80000 1.60221
vt 0.09928 1.73581
vt 1.00000 1.76360
vt 0.75809 1.90925
vt 0.10405 2.00223
vt 1.00000 1.99762
vt 0.49852 2.12967
vt 0.17175 2.39601
vt 1.00000 2.50738
vt 0.00000 2.23113
vt 0.90563 2.22738
vt 0.47702 2.46987
vt 0.80000 2.57373
vt 0.28763 2.68734
vt 1.00000 2.79863
vt 0.27969 2.91430
vt 0.68769 2.98661
vt 0.11656 3.09977
vt 1.00000 3.04041
vt 0.48380 3.20138
vt 0.00000 3.20000
vt 0.84485 3.26476
vt 0.11963 3.36746
vt 1.00000 3.36977
vt 0.46705 3.50462
vt 0.00000 3.63242
vt 1.00000 3.63242
vt 0.75000 3.64291
vt 0.47516 3.73484
vt 0.00000 3.94978
vt 1.00000 3.94978
vt 0.67190 4.03204
vt 0.38930 4.12527
vt 0.20312 4.29973
vt 1.00000 4.19019
vt 0.00000 4.40237
vt 0.85972 4.44574
vt 0.50000 4.44900
vt 0.09617 4.67104
vt 1.00000 4.65605
vt 0.30320 4.81935
vt 0.75000 4.75434
vt 0.00000 4.96011
vt 0.87431 4.97039
vt 0.50000 5.04172
vt 0.25000 5.19092
vt 0.00000 5.23781
vt 1.00000 5.23781
vt 0.71613 5.26125
vt 0.25000 5.66629
vt 0.00000 5.53114
vt 0.87479 5.53164
vt 0.55646 5.62518
vt 0.00000 5.75360
vt 0.78850 5.86323
vt 0.39404 6.00681
vt 0.00000 6.06769
vt 1.00000 6.06769
vt 0.55735 6.19765
vt 0.25000 6.35500
vt 0.00000 6.46354
vt 0.87952 6.45433
vt 0.50000 6.55402
vt 0.20677 6.63428
vt 1.00000 6.74280
vt 0.75000 6.91086
vt 0.12264 6.91638
vt 1.00000 6.92627
vt 0.50000 7.01714
vt 0.04622 7.19633
vt 1.00000 7.19633
vt 0.25000 7.30951
vt 0.70872 7.33253
vt 0.00000 7.57085
vt 1.00000 7.57085
vt 0.33330 7.65351
vt 0.66670 7.67242
vt 0.33330 8.00000
vt 0.00000 7.99978
vt 1.00000 7.99978
vt 0.66670 7.99993
vt 0.09482 0.00002
vt 1.00000 -0.00004
vt 0.40000 -0.00002
vt 0.70652 0.00004
vt 0.09499 0.41043
vt 1.00000 0.40564
vt 0.74308 0.46500
vt 0.32991 0.58377
vt 0.14374 0.69810
vt 1.00000 0.62136
vt 0.80000 0.73829
vt 0.15551 0.93604
vt 1.00000 0.84409
vt 0.50055 0.85896
vt 0.00000 1.08568
vt 0.90134 1.03414
vt 0.50042 1.08597
vt 0.31623 1.26025
vt 0.70160 1.25726
vt 0.00000 1.32052
vt 0.81944 1.44615
vt 0.28113 1.46617
vt 0.60000 1.62815
vt 0.04690 1.68846
vt 1.00000 1.66595
vt 0.49279 1.94626
vt 0.80000 1.84351
vt 0.06614 2.08714
vt 1.00000 2.05629
vt 0.28746 2.29132
vt 0.00000 2.33216
vt 0.93979 2.30393
vt 0.42940 2.43438
vt 0.67061 2.55870
vt 0.09498 2.55864
vt 1.00000 2.56297
vt 0.45339 2.73159
vt 0.05228 2.83485
vt 1.00000 2.84722
vt 0.69763 2.91612
vt 0.20000 3.07600
vt 0.56429 3.12042
vt 0.00000 3.22150
vt 0.91097 3.18842
vt 0.68776 3.40472
vt 0.25000 3.40851
vt 0.00000 3.48770
vt 0.86375 3.58025
vt 0.12583 3.72179
vt 1.00000 3.71966
vt 0.57339 3.87290
vt 0.25000 3.98864
vt 0.00000 3.93668
vt 1.00000 3.93668
vt 0.50000 4.11974
vt 0.00000 4.22055
vt 0.87636 4.23209
vt 0.25000 4.37094
vt 0.50000 4.44534
vt 0.00000 4.53135
vt 0.87499 4.53151
vt 0.25000 4.86332
vt 0.00000 4.83142
vt 0.94284 4.83142
vt 0.62507 4.74684
vt 0.50000 5.01785
vt 0.00000 5.08637
vt 0.87540 5.07934
vt 0.27532 5.22073
vt 0.75000 5.40457
vt 0.06658 5.38184
vt 1.00000 5.35796
vt 0.50000 5.62234
vt 0.12512 5.71751
vt 1.00000 5.71581
vt 0.75000 5.77294
vt 0.39756 5.93391
vt 0.07649 6.13923
vt 1.00000 6.14479
vt 0.75000 6.12841
vt 0.50000 6.16109
vt 0.37357 6.45073
vt 0.00000 6.46780
vt 1.00000 6.46780
vt 0.75000 6.56851
vt 0.37225 6.68387
vt 0.02943 6.71466
vt 1.00000 6.69566
vt 0.00000 6.96296
vt 0.95125 6.96296
vt 0.72851 7.07942
vt 0.37539 7.03166
vt 0.05657 7.29030
vt 1.00000 7.29030
vt 0.34308 7.36020
vt 0.68279 7.60608
vt 0.33330 7.65252
vt 0.00000 7.70236
vt 1.00000 7.70236
vt 0.33330 8.00007
vt 0.66670 7.99985
vt 0.00000 7.99996
vt 1.00000 7.99996
usemtl trunk
f 3/3/3 6/6/6 1/1/1
f 4/4/4 10/10/10 3/3/3
f 10/10/10 14/14/14 6/6/6
f 10/10/10 9/9/9 15/15/15
f 9/9/9 16/16/16 15/15/15
f 8/8/8 11/11/11 16/16/16
f 15/15/15 14/14/14 10/10/10
f 15/15/15 16/16/16 17/17/17
f 12/12/12 14/14/14 18/18/18
f 15/15/15 17/17/17 19/19/19
f 18/18/18 20/20/20 12/12/12
f 16/16/16 11/11/11 17/17/17
f 13/13/13 21/21/21 11/11/11
f 17/17/17 23/23/23 22/22/22
f 11/11/11 21/21/21 23/23/23
f 20/20/20 18/18/18 24/24/24
f 19/19/19 26/26/26 18/18/18
f 19/19/19 29/29/29 28/28/28
f 29/29/29 22/22/22 30/30/30
f 28/28/28 31/31/31 26/26/26
f 30/30/30 22/22/22 33/33/33
f 25/25/25 32/32/32 33/33/33
f 30/30/30 34/34/34 31/31/31
f 33/33/33 36/36/36 30/30/30
f 34/34/34 36/36/36 37/37/37
f 35/35/35 39/39/39 33/33/33
f 39/39/39 40/40/40 36/36/36
f 40/40/40 39/39/39 41/41/41
f 37/37/37 43/43/43 44/44/44
f 44/44/44 43/43/43 47/47/47
f 41/41/41 42/42/42 46/46/46
f 46/46/46 42/42/42 49/49/49
f 45/45/45 48/48/48 49/49/49
f 49/49/49 52/52/52 46/46/46
f 49/49/49 51/51/51 53/53/53
f 56/56/56 57/57/57 54/54/54
f 59/59/59 60/60/60 56/56/56
f 55/55/55 60/60/60 59/59/59
f 60/60/60 63/63/63 56/56/56
f 63/63/63 64/64/64 61/61/61
f 58/58/58 62/62/62 66/66/66
f 64/64/64 63/63/63 67/67/67
f 66/66/66 69/69/69 63/63/63
f 66/66/66 68/68/68 70/70/70
f 70/70/70 71/71/71 69/69/69
f 71/71/71 72/72/72 67/67/67
f 70/70/70 74/74/74 71/71/71
f 71/71/71 74/74/74 72/72/72
f 70/70/70 73/73/73 75/75/75
f 72/72/72 76/76/76 77/77/77
f 73/73/73 79/79/79 75/75/75
f 76/76/76 80/80/80 77/77/77
f 76/76/76 79/79/79 82/82/82
f 82/82/82 88/88/88 80/80/80
f 87/87/87 88/88/88 82/82/82
f 88/88/88 91/91/91 85/85/85
f 93/93/93 92/92/92 94/94/94
f 94/94/94 95/95/95 89/89/89
f 90/90/90 96/96/96 92/92/92
f 89/89/89 95/95/95 97/97/97
f 94/94/94 96/96/96 95/95/95
f 96/96/96 98/98/98 100/100/100
f 95/95/95 96/96/96 101/101/101
f 96/96/96 100/100/100 101/101/101
f 101/101/101 102/102/102 97/97/97
f 99/99/99 102/102/102 103/103/103
f 100/100/100 105/105/105 101/101/101
f 102/102/102 106/106/106 103/103/103
f 105/105/105 109/109/109 108/108/108
f 104/104/104 107/107/107 109/109/109
f 108/108/108 110/110/110 106/106/106
f 108/108/108 109/109/109 112/112/112
f 108/108/108 113/113/113 110/110/110
f 108/108/108 112/112/112 113/113/113
f 113/113/113 115/115/115 116/116/116
f 113/113/113 118/118/118 115/115/115
f 111/111/111 118/118/118 112/112/112
f 114/114/114 117/117/117 111/111/111
f 116/116/116 115/115/115 119/119/119
f 117/117/117 121/121/121 118/118/118
f 121/121/121 122/122/122 115/115/115
f 120/120/120 123/123/123 124/124/124
f 121/121/121 125/125/125 122/122/122
f 121/121/121 124/124/124 127/127/127
f 121/121/121 127/127/127 128/128/128
f 128/128/128 130/130/130 125/125/125
f 128/128/128 127/127/127 129/129/129
f 131/131/131 132/132/132 126/126/126
f 129/129/129 135/135/135 133/133/133
f 131/131/131 137/137/137 132/132/132
f 135/135/135 138/138/138 133/133/133
f 137/137/137 140/140/140 135/135/135
f 137/137/137 139/139/139 141/141/141
f 141/141/141 142/142/142 140/140/140
f 141/141/141 139/139/139 145/145/145
f 142/142/142 143/143/143 138/138/138
f 145/145/145 146/146/146 142/142/142
f 146/146/146 148/148/148 143/143/143
f 146/146/146 150/150/150 147/147/147
f 144/144/144 150/150/150 145/145/145
f 155/155/155 160/160/160 161/161/161
f 157/157/157 163/163/163 160/160/160
f 162/162/162 163/163/163 158/158/158
f 160/160/160 164/164/164 161/161/161
f 160/160/160 166/166/166 164/164/164
f 160/160/160 167/167/167 166/166/166
f 166/166/166 168/168/168 164/164/164
f 166/166/166 171/171/171 170/170/170
f 167/167/167 169/169/169 171/171/171
f 171/171/171 173/173/173 175/175/175
f 175/175/175 174/174/174 170/170/170
f 172/172/172 174/174/174 176/176/176
f 175/175/175 177/177/177 178/178/178
f 178/178/178 179/179/179 174/174/174
f 177/177/177 181/181/181 178/178/178
f 181/181/181 183/183/183 179/179/179
f 182/182/182 183/183/183 184/184/184
f 182/182/182 185/185/185 180/180/180
f 182/182/182 184/184/184 185/185/185
f 186/186/186 188/188/188 183/183/183
f 188/188/188 189/189/189 184/184/184
f 185/185/185 189/189/189 190/190/190
f 190/190/190 191/191/191 187/187/187
f 189/189/189 193/193/193 190/190/190
f 189/189/189 192/192/192 193/193/193
f 193/193/193 194/194/194 190/190/190
f 193/193/193 195/195/195 194/194/194
f 193/193/193 192/192/192 195/195/195
f 194/194/194 196/196/196 191/191/191
f 192/192/192 197/197/197 195/195/195
f 195/195/195 198/198/198 194/194/194
f 195/195/195 197/197/197 199/199/199
f 196/196/196 198/198/198 200/200/200
f 198/198/198 204/204/204 202/202/202
f 201/201/201 204/204/204 199/199/199
f 203/203/203 208/208/208 201/201/201
f 202/202/202 204/204/204 205/205/205
f 204/204/204 208/208/208 209/209/209
f 209/209/209 212/212/212 205/205/205
f 209/209/209 211/211/211 213/213/213
f 212/212/212 215/215/215 210/210/210
f 213/213/213 214/214/214 212/212/212
f 213/213/213 217/217/217 214/214/214
f 213/213/213 216/216/216 217/217/217
f 217/217/217 218/218/218 214/214/214
f 218/218/218 219/219/219 215/215/215
f 217/217/217 220/220/220 221/221/221
f 219/219/219 222/222/222 223/223/223
f 221/221/221 222/222/222 218/218/218
f 224/224/224 226/226/226 221/221/221
f 222/222/222 227/227/227 223/223/223
f 226/226/226 227/227/227 222/222/222
f 223/223/223 228/228/228 225/225/225
f 223/223/223 227/227/227 228/228/228
f 228/228/228 233/233/233 231/231/231
f 227/227/227 234/234/234 233/233/233
f 229/229/229 234/234/234 230/230/230
f 233/233/233 235/235/235 231/231/231
f 234/234/234 236/236/236 238/238/238
f 233/233/233 239/239/239 235/235/235
f 233/233/233 240/240/240 239/239/239
f 237/237/237 241/241/241 242/242/242
f 242/242/242 241/241/241 244/244/244
f 243/243/243 246/246/246 240/240/240
f 243/243/243 245/245/245 246/246/246
f 246/246/246 247/247/247 241/241/241
f 246/246/246 245/245/245 248/248/248
f 244/244/244 247/247/247 249/249/249
f 247/247/247 251/251/251 249/249/249
f 247/247/247 254/254/254 253/253/253
f 252/252/252 254/254/254 248/248/248
f 257/257/257 259/259/259 255/255/255
f 257/257/257 262/262/262 261/261/261
f 262/262/262 260/260/260 261/261/261
f 259/259/259 263/263/263 264/264/264
f 265/265/265 266/266/266 261/261/261
f 266/266/266 268/268/268 263/263/263
f 267/267/267 270/270/270 266/266/266
f 267/267/267 269/269/269 271/271/271
f 270/270/270 272/272/272 268/268/268
f 267/267/267 271/271/271 270/270/270
f 271/271/271 273/273/273 274/274/274
f 270/270/270 275/275/275 272/272/272
f 277/277/277 278/278/278 275/275/275
f 276/276/276 281/281/281 274/274/274
f 277/277/277 283/283/283 282/282/282
f 283/283/283 286/286/286 282/282/282
f 285/285/285 287/287/287 283/283/283
f 286/286/286 288/288/288 284/284/284
f 286/286/286 290/290/290 288/288/288
f 287/287/287 290/290/290 286/286/286
f 289/289/289 292/292/292 287/287/287
f 292/292/292 290/290/290 287/287/287
f 288/288/288 293/293/293 291/291/291
f 290/290/290 293/293/293 288/288/288
f 292/292/292 295/295/295 290/290/290
f 292/292/292 297/297/297 298/298/298
f 295/295/295 298/298/298 299/299/299
f 299/299/299 300/300/300 296/296/296
f 298/298/298 301/301/301 302/302/302
f 299/299/299 302/302/302 303/303/303
f 303/303/303 304/304/304 300/300/300
f 302/302/302 308/308/308 303/303/303
f 305/305/305 307/307/307 302/302/302
f 304/304/304 308/308/308 309/309/309
f 307/307/307 311/311/311 308/308/308
f 307/307/307 310/310/310 312/312/312
f 309/309/309 311/311/311 313/313/313
f 312/312/312 315/315/315 311/311/311
f 315/315/315 316/316/316 311/311/311
f 316/316/316 317/317/317 313/313/313
f 314/314/314 318/318/318 319/319/319
f 316/316/316 321/321/321 317/317/317
f 319/319/319 320/320/320 316/316/316
f 319/319/319 322/322/322 323/323/323
f 320/320/320 324/324/324 321/321/321
f 322/322/322 325/325/325 323/323/323
f 323/323/323 325/325/325 326/326/326
f 320/320/320 327/327/327 324/324/324
f 328/328/328 329/329/329 325/325/325
f 327/327/327 330/330/330 331/331/331
f 326/326/326 329/329/329 330/330/330
f 328/328/328 332/332/332 329/329/329
f 329/329/329 332/332/332 333/333/333
f 330/330/330 333/333/333 334/334/334
f 334/334/334 339/339/339 337/337/337
f 336/336/336 339/339/339 333/333/333
f 339/339/339 340/340/340 337/337/337
f 339/339/339 342/342/342 340/340/340
f 336/336/336 341/341/341 343/343/343
f 340/340/340 342/342/342 344/344/344
f 343/343/343 346/346/346 342/342/342
f 343/343/343 345/345/345 347/347/347
f 346/346/346 349/349/349 344/344/344
f 346/346/346 347/347/347 348/348/348
f 350/350/350 351/351/351 347/347/347
f 352/352/352 354/354/354 356/356/356
f 353/353/353 358/358/358 355/355/355
f 354/354/354 358/358/358 359/359/359
f 358/358/358 361/361/361 362/362/362
f 359/359/359 362/362/362 365/365/365
f 365/365/365 363/363/363 360/360/360
f 362/362/362 364/364/364 367/367/367
f 365/365/365 367/367/367 368/368/368
f 368/368/368 369/369/369 363/363/363
f 366/366/366 369/369/369 371/371/371
f 373/373/373 375/375/375 371/371/371
f 369/369/369 374/374/374 373/373/373
f 372/372/372 374/374/374 370/370/370
f 373/373/373 374/374/374 377/377/377
f 376/376/376 378/378/378 372/372/372
f 378/378/378 377/377/377 374/374/374
f 377/377/377 379/379/379 375/375/375
f 380/380/380 383/383/383 378/378/378
f 377/377/377 383/383/383 384/384/384
f 384/384/384 386/386/386 381/381/381
f 385/385/385 388/388/388 384/384/384
f 388/388/388 389/389/389 386/386/386
f 385/385/385 391/391/391 388/388/388
f 385/385/385 390/390/390 391/391/391
f 389/389/389 393/393/393 392/392/392
f 391/391/391 393/393/393 388/388/388
f 389/389/389 392/392/392 394/394/394
f 390/390/390 395/395/395 391/391/391
f 396/396/396 397/397/397 392/392/392
f 397/397/397 398/398/398 394/394/394
f 397/397/397 396/396/396 400/400/400
f 396/396/396 399/399/399 402/402/402
f 402/402/402 403/403/403 400/400/400
f 399/399/399 405/405/405 402/402/402
f 404/404/404 403/403/403 407/407/407
f 406/406/406 409/409/409 403/403/403
f 408/408/408 410/410/410 406/406/406
f 407/407/407 409/409/409 411/411/411
f 411/411/411 413/413/413 414/414/414
f 409/409/409 416/416/416 413/413/413
f 412/412/412 416/416/416 410/410/410
f 413/413/413 418/418/418 414/414/414
f 413/413/413 417/417/417 420/420/420
f 420/420/420 422/422/422 418/418/418
f 417/417/417 421/421/421 420/420/420
f 420/420/420 421/421/421 424/424/424
f 424/424/424 425/425/425 422/422/422
f 426/426/426 427/427/427 421/421/421
f 424/424/424 427/427/427 428/428/428
f 425/425/425 428/428/428 429/429/429
f 427/427/427 430/430/430 431/431/431
f 431/431/431 432/432/432 428/428/428
f 432/432/432 429/429/429 428/428/428
f 429/429/429 433/433/433 434/434/434
f 431/431/431 433/433/433 432/432/432
f 430/430/430 436/436/436 431/431/431
f 434/434/434 437/437/437 438/438/438
f 436/436/436 437/437/437 433/433/433
f 437/437/437 442/442/442 438/438/438
f 436/436/436 442/442/442 437/437/437
f 439/439/439 441/441/441 436/436/436
f 443/443/443 444/444/444 440/440/440
f 443/443/443 446/446/446 444/444/444
f 443/443/443 442/442/442 446/446/446
f 442/442/442 445/445/445 447/447/447
f 446/446/446 449/449/449 444/444/444
f 448/448/448 452/452/452 451/451/451
f 450/450/450 452/452/452 447/447/447
f 449/449/449 451/451/451 453/453/453
f 153/153/153 148/148/148 147/147/147
f 154/154/154 147/147/147 150/150/150
f 149/149/149 154/154/154 150/150/150
f 1/1/1 6/6/6 7/7/7
f 5/5/5 2/2/2 8/8/8
f 4/4/4 5/5/5 9/9/9
f 10/10/10 4/4/4 9/9/9
f 5/5/5 8/8/8 9/9/9
f 6/6/6 3/3/3 10/10/10
f 6/6/6 12/12/12 7/7/7
f 6/6/6 14/14/14 12/12/12
f 9/9/9 8/8/8 16/16/16
f 11/11/11 8/8/8 13/13/13
f 14/14/14 15/15/15 19/19/19
f 14/14/14 19/19/19 18/18/18
f 17/17/17 22/22/22 19/19/19
f 17/17/17 11/11/11 23/23/23
f 18/18/18 26/26/26 24/24/24
f 23/23/23 21/21/21 25/25/25
f 26/26/26 19/19/19 28/28/28
f 19/19/19 22/22/22 29/29/29
f 23/23/23 25/25/25 22/22/22
f 29/29/29 30/30/30 28/28/28
f 27/27/27 32/32/32 25/25/25
f 28/28/28 30/30/30 31/31/31
f 22/22/22 25/25/25 33/33/33
f 33/33/33 32/32/32 35/35/35
f 30/30/30 36/36/36 34/34/34
f 33/33/33 39/39/39 36/36/36
f 36/36/36 41/41/41 37/37/37
f 36/36/36 40/40/40 41/41/41
f 39/39/39 35/35/35 38/38/38
f 41/41/41 39/39/39 42/42/42
f 37/37/37 41/41/41 43/43/43
f 39/39/39 45/45/45 42/42/42
f 39/39/39 38/38/38 45/45/45
f 41/41/41 46/46/46 43/43/43
f 43/43/43 46/46/46 47/47/47
f 42/42/42 45/45/45 49/49/49
f 49/49/49 48/48/48 51/51/51
f 50/50/50 47/47/47 52/52/52
f 47/47/47 46/46/46 52/52/52
f 49/49/49 53/53/53 52/52/52
f 55/55/55 58/58/58 60/60/60
f 57/57/57 56/56/56 61/61/61
f 61/61/61 56/56/56 63/63/63
f 63/63/63 60/60/60 66/66/66
f 60/60/60 58/58/58 66/66/66
f 66/66/66 62/62/62 65/65/65
f 66/66/66 65/65/65 68/68/68
f 67/67/67 63/63/63 69/69/69
f 66/66/66 70/70/70 69/69/69
f 69/69/69 71/71/71 67/67/67
f 68/68/68 73/73/73 70/70/70
f 70/70/70 75/75/75 74/74/74
f 72/72/72 74/74/74 76/76/76
f 74/74/74 75/75/75 76/76/76
f 75/75/75 79/79/79 76/76/76
f 73/73/73 78/78/78 79/79/79
f 77/77/77 80/80/80 83/83/83
f 76/76/76 82/82/82 80/80/80
f 79/79/79 78/78/78 84/84/84
f 79/79/79 84/84/84 82/82/82
f 84/84/84 87/87/87 82/82/82
f 84/84/84 86/86/86 87/87/87
f 84/84/84 81/81/81 86/86/86
f 85/85/85 80/80/80 88/88/88
f 88/88/88 89/89/89 91/91/91
f 88/88/88 93/93/93 89/89/89
f 88/88/88 87/87/87 93/93/93
f 87/87/87 86/86/86 92/92/92
f 93/93/93 87/87/87 92/92/92
f 93/93/93 94/94/94 89/89/89
f 94/94/94 92/92/92 96/96/96
f 90/90/90 98/98/98 96/96/96
f 95/95/95 101/101/101 97/97/97
f 99/99/99 97/97/97 102/102/102
f 101/101/101 105/105/105 102/102/102
f 100/100/100 104/104/104 105/105/105
f 102/102/102 105/105/105 106/106/106
f 105/105/105 104/104/104 109/109/109
f 105/105/105 108/108/108 106/106/106
f 107/107/107 111/111/111 109/109/109
f 112/112/112 109/109/109 111/111/111
f 113/113/113 112/112/112 118/118/118
f 111/111/111 117/117/117 118/118/118
f 118/118/118 121/121/121 115/115/115
f 117/117/117 120/120/120 121/121/121
f 119/119/119 115/115/115 122/122/122
f 121/121/121 120/120/120 124/124/124
f 124/124/124 123/123/123 126/126/126
f 121/121/121 128/128/128 125/125/125
f 127/127/127 124/124/124 126/126/126
f 128/128/128 129/129/129 130/130/130
f 129/129/129 127/127/127 132/132/132
f 127/127/127 126/126/126 132/132/132
f 130/130/130 129/129/129 133/133/133
f 129/129/129 132/132/132 135/135/135
f 132/132/132 137/137/137 135/135/135
f 131/131/131 134/134/134 137/137/137
f 136/136/136 133/133/133 138/138/138
f 135/135/135 140/140/140 138/138/138
f 137/137/137 141/141/141 140/140/140
f 140/140/140 142/142/142 138/138/138
f 142/142/142 141/141/141 145/145/145
f 145/145/145 139/139/139 144/144/144
f 142/142/142 146/146/146 143/143/143
f 146/146/146 147/147/147 148/148/148
f 146/146/146 145/145/145 150/150/150
f 144/144/144 149/149/149 150/150/150
f 157/157/157 159/159/159 158/158/158
f 155/155/155 157/157/157 160/160/160
f 157/157/157 158/158/158 163/163/163
f 159/159/159 162/162/162 158/158/158
f 159/159/159 156/156/156 162/162/162
f 163/163/163 162/162/162 167/167/167
f 162/162/162 165/165/165 167/167/167
f 160/160/160 163/163/163 167/167/167
f 166/166/166 170/170/170 168/168/168
f 166/166/166 167/167/167 171/171/171
f 167/167/167 165/165/165 169/169/169
f 168/168/168 170/170/170 172/172/172
f 171/171/171 169/169/169 173/173/173
f 172/172/172 170/170/170 174/174/174
f 171/171/171 175/175/175 170/170/170
f 173/173/173 177/177/177 175/175/175
f 175/175/175 178/178/178 174/174/174
f 176/176/176 174/174/174 179/179/179
f 176/176/176 179/179/179 182/182/182
f 178/178/178 181/181/181 179/179/179
f 180/180/180 176/176/176 182/182/182
f 182/182/182 179/179/179 183/183/183
f 181/181/181 186/186/186 183/183/183
f 184/184/184 183/183/183 188/188/188
f 185/185/185 184/184/184 189/189/189
f 185/185/185 190/190/190 187/187/187
f 189/189/189 188/188/188 192/192/192
f 191/191/191 190/190/190 194/194/194
f 196/196/196 194/194/194 198/198/198
f 198/198/198 195/195/195 199/199/199
f 197/197/197 201/201/201 199/199/199
f 200/200/200 198/198/198 202/202/202
f 198/198/198 199/199/199 204/204/204
f 201/201/201 208/208/208 204/204/204
f 202/202/202 205/205/205 207/207/207
f 205/205/205 204/204/204 209/209/209
f 209/209/209 208/208/208 211/211/211
f 208/208/208 206/206/206 211/211/211
f 205/205/205 212/212/212 210/210/210
f 209/209/209 213/213/213 212/212/212
f 212/212/212 214/214/214 215/215/215
f 213/213/213 211/211/211 216/216/216
f 215/215/215 214/214/214 218/218/218
f 218/218/218 217/217/217 221/221/221
f 217/217/217 216/216/216 220/220/220
f 219/219/219 218/218/218 222/222/222
f 220/220/220 224/224/224 221/221/221
f 221/221/221 226/226/226 222/222/222
f 227/227/227 226/226/226 230/230/230
f 226/226/226 229/229/229 230/230/230
f 228/228/228 227/227/227 233/233/233
f 227/227/227 230/230/230 234/234/234
f 229/229/229 232/232/232 234/234/234
f 233/233/233 234/234/234 238/238/238
f 234/234/234 232/232/232 236/236/236
f 235/235/235 239/239/239 237/237/237
f 233/233/233 238/238/238 240/240/240
f 237/237/237 239/239/239 241/241/241
f 239/239/239 240/240/240 241/241/241
f 240/240/240 238/238/238 243/243/243
f 240/240/240 246/246/246 241/241/241
f 241/241/241 247/247/247 244/244/244
f 246/246/246 248/248/248 247/247/247
f 248/248/248 245/245/245 250/250/250
f 250/250/250 252/252/252 248/248/248
f 251/251/251 247/247/247 253/253/253
f 247/247/247 248/248/248 254/254/254
f 257/257/257 258/258/258 259/259/259
f 257/257/257 261/261/261 258/258/258
f 262/262/262 256/256/256 260/260/260
f 259/259/259 258/258/258 263/263/263
f 260/260/260 265/265/265 261/261/261
f 258/258/258 261/261/261 266/266/266
f 263/263/263 258/258/258 266/266/266
f 265/265/265 267/267/267 266/266/266
f 264/264/264 263/263/263 268/268/268
f 266/266/266 270/270/270 268/268/268
f 267/267/267 265/265/265 269/269/269
f 271/271/271 269/269/269 273/273/273
f 270/270/270 271/271/271 274/274/274
f 270/270/270 277/277/277 275/275/275
f 270/270/270 274/274/274 277/277/277
f 274/274/274 273/273/273 276/276/276
f 275/275/275 278/278/278 280/280/280
f 277/277/277 274/274/274 281/281/281
f 278/278/278 277/277/277 282/282/282
f 277/277/277 281/281/281 283/283/283
f 281/281/281 279/279/279 283/283/283
f 278/278/278 282/282/282 284/284/284
f 282/282/282 286/286/286 284/284/284
f 279/279/279 285/285/285 283/283/283
f 283/283/283 287/287/287 286/286/286
f 285/285/285 289/289/289 287/287/287
f 290/290/290 295/295/295 293/293/293
f 293/293/293 295/295/295 296/296/296
f 295/295/295 292/292/292 298/298/298
f 292/292/292 294/294/294 297/297/297
f 295/295/295 299/299/299 296/296/296
f 299/299/299 298/298/298 302/302/302
f 298/298/298 297/297/297 301/301/301
f 299/299/299 303/303/303 300/300/300
f 301/301/301 305/305/305 302/302/302
f 304/304/304 303/303/303 308/308/308
f 302/302/302 307/307/307 308/308/308
f 306/306/306 304/304/304 309/309/309
f 308/308/308 311/311/311 309/309/309
f 307/307/307 312/312/312 311/311/311
f 312/312/312 314/314/314 315/315/315
f 312/312/312 310/310/310 314/314/314
f 311/311/311 316/316/316 313/313/313
f 315/315/315 314/314/314 319/319/319
f 315/315/315 319/319/319 316/316/316
f 316/316/316 320/320/320 321/321/321
f 319/319/319 323/323/323 320/320/320
f 319/319/319 318/318/318 322/322/322
f 320/320/320 323/323/323 326/326/326
f 320/320/320 326/326/326 327/327/327
f 326/326/326 325/325/325 329/329/329
f 327/327/327 326/326/326 330/330/330
f 330/330/330 329/329/329 333/333/333
f 331/331/331 330/330/330 334/334/334
f 333/333/333 332/332/332 336/336/336
f 332/332/332 335/335/335 336/336/336
f 334/334/334 333/333/333 339/339/339
f 335/335/335 338/338/338 336/336/336
f 336/336/336 338/338/338 341/341/341
f 336/336/336 343/343/343 339/339/339
f 339/339/339 343/343/343 342/342/342
f 343/343/343 341/341/341 345/345/345
f 342/342/342 346/346/346 344/344/344
f 343/343/343 347/347/347 346/346/346
f 346/346/346 348/348/348 349/349/349
f 347/347/347 345/345/345 350/350/350
f 348/348/348 347/347/347 351/351/351
f 354/354/354 355/355/355 358/358/358
f 353/353/353 357/357/357 358/358/358
f 356/356/356 354/354/354 359/359/359
f 356/356/356 359/359/359 360/360/360
f 357/357/357 361/361/361 358/358/358
f 359/359/359 358/358/358 362/362/362
f 359/359/359 365/365/365 360/360/360
f 362/362/362 361/361/361 364/364/364
f 365/365/365 362/362/362 367/367/367
f 365/365/365 368/368/368 363/363/363
f 366/366/366 363/363/363 369/369/369
f 367/367/367 370/370/370 368/368/368
f 368/368/368 370/370/370 369/369/369
f 367/367/367 372/372/372 370/370/370
f 371/371/371 369/369/369 373/373/373
f 369/369/369 370/370/370 374/374/374
f 375/375/375 373/373/373 377/377/377
f 372/372/372 378/378/378 374/374/374
f 376/376/376 380/380/380 378/378/378
f 379/379/379 377/377/377 381/381/381
f 377/377/377 378/378/378 383/383/383
f 379/379/379 381/381/381 382/382/382
f 381/381/381 377/377/377 384/384/384
f 384/384/384 383/383/383 385/385/385
f 382/382/382 381/381/381 386/386/386
f 385/385/385 383/383/383 387/387/387
f 384/384/384 388/388/388 386/386/386
f 385/385/385 387/387/387 390/390/390
f 389/389/389 388/388/388 393/393/393
f 391/391/391 395/395/395 393/393/393
f 392/392/392 393/393/393 396/396/396
f 392/392/392 397/397/397 394/394/394
f 393/393/393 395/395/395 396/396/396
f 395/395/395 399/399/399 396/396/396
f 398/398/398 397/397/397 400/400/400
f 400/400/400 396/396/396 402/402/402
f 400/400/400 403/403/403 404/404/404
f 399/399/399 401/401/401 405/405/405
f 402/402/402 406/406/406 403/403/403
f 402/402/402 408/408/408 406/406/406
f 402/402/402 405/405/405 408/408/408
f 407/407/407 403/403/403 409/409/409
f 406/406/406 410/410/410 409/409/409
f 408/408/408 412/412/412 410/410/410
f 411/411/411 409/409/409 413/413/413
f 409/409/409 410/410/410 416/416/416
f 412/412/412 415/415/415 416/416/416
f 413/413/413 416/416/416 417/417/417
f 416/416/416 415/415/415 417/417/417
f 417/417/417 415/415/415 419/419/419
f 413/413/413 420/420/420 418/418/418
f 417/417/417 419/419/419 421/421/421
f 419/419/419 423/423/423 421/421/421
f 422/422/422 420/420/420 424/424/424
f 421/421/421 423/423/423 426/426/426
f 424/424/424 421/421/421 427/427/427
f 424/424/424 428/428/428 425/425/425
f 427/427/427 431/431/431 428/428/428
f 427/427/427 426/426/426 430/430/430
f 429/429/429 432/432/432 433/433/433
f 431/431/431 436/436/436 433/433/433
f 430/430/430 435/435/435 436/436/436
f 434/434/434 433/433/433 437/437/437
f 435/435/435 439/439/439 436/436/436
f 436/436/436 441/441/441 442/442/442
f 438/438/438 443/443/443 440/440/440
f 438/438/438 442/442/442 443/443/443
f 441/441/441 445/445/445 442/442/442
f 446/446/446 442/442/442 447/447/447
f 446/446/446 448/448/448 449/449/449
f 446/446/446 447/447/447 448/448/448
f 447/447/447 445/445/445 450/450/450
f 449/449/449 448/448/448 451/451/451
f 448/448/448 447/447/447 452/452/452
f 450/450/450 454/454/454 452/452/452
f 153/153/153 151/151/151 148/148/148
f 154/154/154 153/153/153 147/147/147
f 149/149/149 152/152/152 154/154/154
