mtllib pillar.mtl
o pillar
v -3.17189 -0.02003 0.27188
v -3.08264 -0.05024 0.20682
v -3.07957 0.05774 0.25891
v -3.13559 0.04519 1.17836
v -3.13559 0.04519 1.17836
v -3.15967 0.02230 1.13709
v -3.08442 -0.05080 1.17921
v -3.06486 -0.01873 0.91636
v -3.13001 0.02865 1.69030
v -3.13001 0.02865 1.69030
v -3.14075 -0.03257 1.69627
v -3.07622 -0.07048 1.69829
v -3.04501 -0.04647 1.69885
v -3.04765 -0.00568 2.05337
v -3.04765 -0.00568 2.05337
v -3.06906 0.00740 2.06327
v -3.06906 0.00740 2.06327
v -3.11467 0.00280 2.06296
v -3.11467 0.00280 2.06296
v -3.11467 0.00280 2.06296
v -3.13749 -0.03530 2.02097
v -3.11022 -0.04704 2.06326
v -3.11022 -0.04704 2.06326
v -3.10597 -0.06315 2.05064
v -3.10597 -0.06315 2.05064
v -3.05425 -0.05162 2.05550
v -3.05425 -0.05162 2.05550
v -3.14125 0.06255 0.72174
v -3.14125 0.06255 0.72174
v -3.09441 0.06010 0.49349
v -3.13691 0.05114 0.00005
v -3.13691 0.05114 0.00005
v -3.17197 0.03491 0.73614
v -3.16720 0.03220 0.55138
v -3.16214 0.02383 0.00001
v -3.16726 -0.01519 0.60820
v -3.15323 -0.03987 0.00000
v -3.13755 -0.04125 0.64086
v -3.13833 -0.04604 0.17623
v -3.08366 -0.04525 0.63206
v -3.07165 -0.04855 0.00000
v -3.06103 -0.02010 0.56360
v -3.05983 -0.02828 0.20399
v -3.06698 0.04108 0.00000
v -3.06472 0.03607 0.80124
v -3.06883 0.03788 0.48742
v -3.08282 0.04729 1.27871
v -3.08542 0.05832 0.78762
v -3.15218 -0.03764 1.45857
v -3.12882 -0.06192 1.51217
v -3.14104 -0.05127 0.92003
v -3.04297 0.00850 1.57235
v -3.05670 0.02958 1.52845
v -3.12822 0.03915 1.92858
v -3.12822 0.03915 1.92858
v -3.15060 0.01831 1.90314
v -3.05220 -0.04521 1.91799
v -3.07988 0.03221 1.94871
v -0.04461 -0.06141 0.40175
v 0.00605 -0.06138 0.37663
v 0.03769 -0.03148 0.44132
v 0.03772 0.02161 0.28080
v 0.06580 -0.03122 0.88364
v 0.06600 0.02167 0.95053
v 0.03895 0.04882 0.95941
v -0.04736 0.02151 1.67241
v 0.01331 0.04181 1.88415
v -0.02835 0.04197 1.64603
v -0.01730 0.01950 2.05806
v -0.01730 0.01950 2.05806
v -0.01470 -0.02642 2.06183
v -0.01470 -0.02642 2.06183
v -0.01470 -0.02642 2.06183
v 0.02171 -0.03539 2.03736
v 0.03582 -0.02169 2.06298
v 0.03582 -0.02169 2.06298
v 0.04573 0.01325 2.03505
v 0.03059 0.02837 2.06110
v 0.03059 0.02837 2.06110
v -0.03291 -0.02779 0.85378
v -0.03291 -0.02779 0.85378
v -0.06427 -0.03946 0.43253
v -0.06427 -0.03946 0.43253
v -0.04829 0.02562 0.00001
v -0.03764 -0.04278 0.00001
v -0.03764 -0.04278 0.00001
v -0.01277 -0.04940 0.84108
v 0.03431 -0.05310 0.76356
v 0.02855 -0.05284 -0.00010
v 0.05234 -0.03094 -0.00006
v 0.04910 0.01981 0.62486
v 0.05455 0.02142 0.00000
v 0.01726 0.04159 0.39145
v 0.02658 0.04937 -0.00001
v -0.02522 0.04862 -0.00009
v -0.02573 0.04352 0.48372
v -0.05753 0.01409 0.49240
v -0.04684 -0.02648 1.53661
v -0.04684 -0.02648 1.53661
v -0.03620 0.02462 0.93009
v -0.02632 -0.04902 1.50021
v 0.02195 -0.05254 1.53129
v 0.04525 0.01673 1.66625
v 3.14178 0.03260 0.31423
v 3.14178 0.03260 0.31423
v 3.10527 0.05557 0.45739
v 3.05735 0.05700 0.35209
v 3.04367 0.03589 0.26858
v 3.04148 -0.01671 0.27423
v 3.06807 -0.04232 0.27693
v 3.14129 -0.02000 0.24774
v 3.07486 -0.05998 2.06434
v 3.07486 -0.05998 2.06434
v 3.10337 -0.03939 2.03074
v 3.09272 0.02346 2.02864
v 3.09272 0.02346 2.02864
v 3.08077 0.01442 2.06513
v 3.08077 0.01442 2.06513
v 3.08077 0.01442 2.06513
v 3.02895 0.03447 2.03512
v 3.00691 0.00965 2.06300
v 3.00691 0.00965 2.06300
v 3.00280 -0.03533 2.03753
v 3.03105 -0.06202 2.06301
v 3.03105 -0.06202 2.06301
v 3.12471 0.02708 0.73504
v 3.12471 0.02708 0.73504
v 3.12826 -0.02586 0.79353
v 3.13968 0.02124 0.00001
v 3.13968 0.02124 0.00001
v 3.11476 0.04900 0.00000
v 3.05001 0.04867 0.00000
v 3.02541 0.02829 0.70994
v 3.03676 -0.02687 0.00001
v 3.02839 -0.02658 0.82569
v 3.05308 -0.05052 0.85224
v 3.06101 -0.05210 0.00000
v 3.11404 -0.04306 0.35006
v 3.12603 -0.04496 0.00000
v 3.12377 0.02256 1.56424
v 3.12377 0.02256 1.56424
v 3.12670 -0.02972 1.57715
v 3.10316 0.04328 1.56868
v 3.04928 0.04502 1.67004
v 3.02394 0.02010 1.56090
v 3.02655 -0.03265 1.58618
v 3.04793 -0.05313 1.56024
v 3.10046 -0.05641 1.56857
vn -0.9200 -0.3920 0.0032
vn 0.3338 -0.9425 0.0145
vn 0.5925 0.8054 -0.0138
vn -0.7161 0.6972 0.0331
vn -0.0811 0.9964 0.0250
vn -0.9353 0.3523 0.0324
vn 0.3957 -0.9178 -0.0330
vn 0.9546 -0.2979 -0.0076
vn -0.9779 0.2084 -0.0129
vn -0.0073 1.0000 -0.0019
vn -0.9739 -0.2268 0.0100
vn 0.2455 -0.9694 -0.0019
vn 0.9012 -0.4333 0.0097
vn 0.4111 -0.0168 0.9114
vn 0.9027 0.4247 0.0694
vn 0.2480 0.9469 0.2044
vn 0.1758 -0.0391 0.9836
vn -0.9080 0.1512 0.3908
vn -0.0073 0.0053 1.0000
vn -0.0985 0.9581 0.2691
vn -0.9362 -0.2782 0.2148
vn -0.8378 -0.2978 0.4577
vn 0.0700 -0.2938 0.9533
vn 0.0604 -0.6056 0.7935
vn -0.3948 -0.9074 0.1439
vn 0.1810 -0.1809 0.9667
vn 0.7308 -0.6823 -0.0209
vn -0.6726 0.7400 -0.0019
vn 0.0563 0.9984 0.0101
vn 0.3312 0.9436 -0.0046
vn -0.7336 0.6794 -0.0170
vn 0.1163 0.9919 -0.0508
vn -0.9386 0.3445 0.0175
vn -0.9226 0.3858 -0.0070
vn -0.9497 0.3108 -0.0385
vn -0.9068 -0.4215 -0.0068
vn -0.6870 -0.7251 -0.0477
vn -0.3744 -0.9272 -0.0129
vn -0.3334 -0.9428 0.0065
vn 0.3862 -0.9224 0.0066
vn 0.6415 -0.7656 -0.0484
vn 0.9559 -0.2938 0.0010
vn 0.9552 -0.2955 0.0175
vn 0.7730 0.6318 -0.0575
vn 0.9253 0.3791 0.0059
vn 0.8842 0.4671 0.0035
vn 0.2387 0.9709 0.0191
vn 0.4152 0.9096 0.0161
vn -0.9480 -0.3168 0.0298
vn -0.4426 -0.8967 0.0046
vn -0.3756 -0.9265 -0.0205
vn 0.9631 0.2693 0.0016
vn 0.5644 0.8255 0.0081
vn -0.7643 0.6244 0.1609
vn 0.1088 0.9928 0.0505
vn -0.9489 0.3131 0.0379
vn 0.8106 -0.5849 0.0281
vn 0.4013 0.9121 0.0838
vn -0.4237 -0.9058 -0.0057
vn 0.3459 -0.9383 0.0014
vn 0.9091 -0.4156 -0.0291
vn 0.9090 0.4148 0.0398
vn 0.8941 -0.4474 -0.0177
vn 0.9280 0.3725 -0.0004
vn 0.3397 0.9405 0.0004
vn -0.9502 0.3073 0.0524
vn 0.1571 0.9869 0.0358
vn -0.4069 0.9134 0.0070
vn -0.7878 0.6065 0.1073
vn -0.0773 0.0772 0.9940
vn -0.1184 -0.9727 0.1994
vn -0.0511 0.0555 0.9971
vn -0.9952 -0.0610 0.0760
vn 0.2429 -0.9602 0.1382
vn -0.0261 0.0349 0.9991
vn 0.7556 -0.5847 0.2953
vn 0.9645 0.2373 0.1161
vn -0.0501 0.0547 0.9972
vn 0.4980 0.8309 0.2481
vn -0.7263 -0.6872 0.0173
vn -0.9871 -0.1484 0.0594
vn -0.7122 -0.7005 0.0448
vn -0.9946 0.1033 -0.0025
vn -0.9431 0.3313 -0.0271
vn -0.1783 -0.9828 -0.0487
vn -0.9863 -0.1536 -0.0595
vn -0.4152 -0.9094 0.0232
vn 0.3485 -0.9373 -0.0080
vn 0.3143 -0.9493 -0.0111
vn 0.9078 -0.4183 0.0307
vn 0.9288 0.3670 -0.0517
vn 0.9299 0.3653 0.0418
vn 0.3772 0.9261 -0.0036
vn 0.3820 0.9236 0.0331
vn -0.3847 0.9229 0.0139
vn -0.3581 0.9337 -0.0002
vn -0.9004 0.4346 0.0231
vn -0.7141 -0.6994 0.0305
vn -1.0000 0.0063 -0.0068
vn -0.9750 0.2221 -0.0019
vn -0.4436 -0.8962 0.0059
vn 0.3265 -0.9448 0.0282
vn 0.9241 0.3813 0.0263
vn 0.5468 0.8373 0.0009
vn 0.9995 -0.0258 0.0179
vn 0.3359 0.9417 0.0200
vn -0.4052 0.9139 -0.0226
vn -0.9530 0.3030 -0.0055
vn -0.9286 -0.3710 -0.0041
vn -0.3754 -0.9269 0.0038
vn 0.9235 -0.3835 0.0116
vn 0.5046 -0.8262 0.2506
vn -0.0291 -0.0092 0.9995
vn 0.9149 -0.3255 0.2390
vn 0.1921 0.9705 0.1454
vn 0.9675 0.1663 0.1906
vn 0.1101 0.9038 0.4136
vn -0.0283 -0.0084 0.9996
vn 0.8868 0.0816 0.4548
vn -0.2943 0.9276 0.2300
vn -0.0289 -0.0090 0.9995
vn -0.8157 0.4599 0.3509
vn -0.9224 -0.3487 0.1662
vn -0.0300 -0.0100 0.9995
vn -0.4229 -0.8958 0.1370
vn 0.7793 0.6266 0.0095
vn 0.9942 0.1025 0.0324
vn 0.9478 -0.3189 0.0062
vn 0.7437 0.6678 -0.0291
vn 0.9835 -0.1772 -0.0359
vn 0.4007 0.9159 -0.0227
vn -0.6448 0.7641 -0.0189
vn -0.9296 0.3684 -0.0117
vn -0.9509 -0.3089 0.0180
vn -0.9038 -0.4277 -0.0153
vn -0.3572 -0.9339 -0.0133
vn -0.3437 -0.9381 0.0419
vn 0.3576 -0.9339 -0.0005
vn 0.6560 -0.7548 -0.0038
vn 0.7110 0.7028 0.0231
vn 0.9976 0.0633 0.0294
vn 0.9388 -0.3434 0.0277
vn 0.4141 0.9099 0.0226
vn -0.3005 0.9537 0.0148
vn -0.9335 0.3584 -0.0090
vn -0.9095 -0.4143 -0.0340
vn -0.4048 -0.9143 -0.0141
vn 0.3635 -0.9316 -0.0020
vt 0.25006 -0.27502
vt 0.50030 -0.33518
vt 0.79219 -0.28799
vt 0.00030 0.54992
vt 1.00030 0.54992
vt 0.10526 0.51996
vt 0.50030 0.54765
vt 0.59882 0.30780
vt -0.00036 1.01744
vt 0.99488 1.01730
vt 0.24401 1.00455
vt 0.46061 1.02073
vt 0.58360 1.02114
vt 0.64474 1.25099
vt 0.71643 1.45441
vt 0.85409 1.48817
vt 0.88869 1.51583
vt 0.03407 1.48479
vt 0.83486 2.02954
vt 1.00030 1.48479
vt 0.21759 1.32363
vt 0.23144 1.51440
vt 0.30087 2.05239
vt 0.03843 1.85559
vt 0.36807 1.45837
vt 0.18457 1.38899
vt 0.54468 1.47988
vt 0.00030 0.16066
vt 0.95615 0.14429
vt 0.85932 -0.07240
vt 0.00030 -0.52423
vt 1.00014 -0.52428
vt 0.10140 0.14949
vt 0.08443 -0.02015
vt 0.09215 -0.52452
vt 0.24172 0.03309
vt 0.28353 -0.52470
vt 0.34736 0.05685
vt 0.34032 -0.35802
vt 0.49149 0.04823
vt 0.52445 -0.52470
vt 0.61258 -0.01450
vt 0.61133 -0.34009
vt 0.79162 -0.52459
vt 0.75030 0.20630
vt 0.75030 -0.07836
vt 0.89284 0.61021
vt 0.84194 0.19391
vt 0.25030 0.80312
vt 0.33168 0.84974
vt 0.36756 0.30447
vt 0.75263 0.91285
vt 0.81957 0.86825
vt 0.00030 1.23114
vt 0.97700 1.22939
vt 0.09229 1.20710
vt 0.55382 1.21394
vt 0.83360 1.24944
vt 0.08360 0.19489
vt 0.18851 0.17927
vt 0.34724 0.21126
vt 0.50030 0.13570
vt 0.33360 0.42724
vt 0.48847 0.46001
vt 0.59091 0.46302
vt 0.84359 0.80886
vt 0.67374 0.91070
vt 0.75030 0.79529
vt 0.81249 1.04640
vt 0.81319 1.38080
vt 0.03972 1.07196
vt 0.85494 1.96749
vt 0.97800 1.07187
vt 0.22338 0.99377
vt 0.20123 1.99608
vt 0.31282 1.07626
vt 0.46961 0.99176
vt 0.23861 1.34797
vt 0.56743 1.07031
vt 0.00030 0.41352
vt 1.00030 0.41352
vt 0.00030 0.21260
vt 0.99157 0.21175
vt 0.84196 -0.00002
vt 0.04290 0.00001
vt 1.00030 0.00001
vt 0.08360 0.40733
vt 0.23942 0.36951
vt 0.23700 0.00082
vt 0.33360 0.00003
vt 0.48922 0.30056
vt 0.49057 0.00080
vt 0.61052 0.19160
vt 0.58373 0.00026
vt 0.73864 0.00009
vt 0.75030 0.23466
vt 0.83360 0.23878
vt 0.00030 0.71832
vt 0.96378 0.74161
vt 0.85056 0.45321
vt 0.08360 0.72499
vt 0.23832 0.73916
vt 0.46838 0.80512
vt 0.00030 -0.24531
vt 0.99118 -0.24610
vt 0.10105 -0.14785
vt 0.25057 -0.21939
vt 0.33360 -0.27716
vt 0.45191 -0.26891
vt 0.61468 -0.27400
vt 0.83360 -0.29157
vt 0.78542 1.06054
vt 0.81650 1.37696
vt 0.85036 0.94610
vt 0.04085 0.94519
vt 1.00030 0.94469
vt 0.05661 1.08390
vt 0.80057 2.01034
vt 0.96889 1.08390
vt 0.23671 0.94694
vt 0.11282 1.94553
vt 0.32912 1.06463
vt 0.47772 0.95037
vt 0.23842 1.33534
vt 0.57736 1.05015
vt 0.00030 0.04481
vt 1.00030 0.04481
vt 0.88123 0.08785
vt 0.00030 -0.46259
vt 0.98051 -0.46259
vt 0.09212 -0.46257
vt 0.27979 -0.46208
vt 0.36592 0.02574
vt 0.50030 -0.46255
vt 0.50030 0.10738
vt 0.61621 0.10812
vt 0.59213 -0.46260
vt 0.75030 -0.22087
vt 0.78223 -0.46262
vt 0.00030 0.61712
vt 1.00030 0.61712
vt 0.86313 0.63198
vt 0.08360 0.62018
vt 0.12540 0.68559
vt 0.37819 0.60947
vt 0.50030 0.63226
vt 0.58360 0.61437
vt 0.73257 0.62213
usemtl pillar
f 30/30/30 32/32/32 29/29/29
f 34/34/34 31/31/31 35/35/35
f 42/42/42 2/2/2 43/43/43
f 3/3/3 32/32/32 30/30/30
f 57/57/57 13/13/13 52/52/52
f 58/58/58 52/52/52 53/53/53
f 25/25/25 22/22/22 21/21/21
f 26/26/26 23/23/23 24/24/24
f 23/23/23 17/17/17 19/19/19
f 28/28/28 34/34/34 33/33/33
f 33/33/33 34/34/34 36/36/36
f 36/36/36 39/39/39 38/38/38
f 37/37/37 39/39/39 1/1/1
f 37/37/37 41/41/41 39/39/39
f 38/38/38 2/2/2 40/40/40
f 2/2/2 39/39/39 41/41/41
f 45/45/45 42/42/42 46/46/46
f 46/46/46 43/43/43 3/3/3
f 48/48/48 46/46/46 30/30/30
f 48/48/48 30/30/30 29/29/29
f 32/32/32 3/3/3 44/44/44
f 33/33/33 4/4/4 28/28/28
f 36/36/36 6/6/6 33/33/33
f 49/49/49 51/51/51 50/50/50
f 51/51/51 49/49/49 36/36/36
f 38/38/38 7/7/7 51/51/51
f 40/40/40 8/8/8 7/7/7
f 53/53/53 8/8/8 45/45/45
f 42/42/42 45/45/45 8/8/8
f 47/47/47 5/5/5 10/10/10
f 18/18/18 54/54/54 56/56/56
f 11/11/11 9/9/9 6/6/6
f 21/21/21 56/56/56 11/11/11
f 25/25/25 11/11/11 50/50/50
f 50/50/50 11/11/11 49/49/49
f 25/25/25 57/57/57 27/27/27
f 7/7/7 13/13/13 12/12/12
f 27/27/27 57/57/57 15/15/15
f 8/8/8 52/52/52 13/13/13
f 57/57/57 52/52/52 15/15/15
f 16/16/16 15/15/15 58/58/58
f 16/16/16 58/58/58 55/55/55
f 58/58/58 10/10/10 55/55/55
f 102/102/102 87/87/87 88/88/88
f 77/77/77 79/79/79 76/76/76
f 80/80/80 59/59/59 87/87/87
f 85/85/85 59/59/59 82/82/82
f 59/59/59 60/60/60 88/88/88
f 85/85/85 89/89/89 59/59/59
f 88/88/88 61/61/61 63/63/63
f 89/89/89 90/90/90 60/60/60
f 92/92/92 61/61/61 90/90/90
f 62/62/62 61/61/61 92/92/92
f 94/94/94 62/62/62 92/92/92
f 95/95/95 93/93/93 94/94/94
f 84/84/84 96/96/96 95/95/95
f 100/100/100 81/81/81 99/99/99
f 83/83/83 81/81/81 100/100/100
f 101/101/101 80/80/80 87/87/87
f 76/76/76 102/102/102 63/63/63
f 63/63/63 64/64/64 103/103/103
f 64/64/64 65/65/65 67/67/67
f 91/91/91 65/65/65 64/64/64
f 67/67/67 96/96/96 68/68/68
f 93/93/93 96/96/96 65/65/65
f 68/68/68 100/100/100 66/66/66
f 66/66/66 100/100/100 99/99/99
f 66/66/66 99/99/99 73/73/73
f 71/71/71 102/102/102 74/74/74
f 76/76/76 103/103/103 77/77/77
f 79/79/79 103/103/103 67/67/67
f 67/67/67 103/103/103 64/64/64
f 69/69/69 67/67/67 68/68/68
f 116/116/116 119/119/119 114/114/114
f 120/120/120 117/117/117 115/115/115
f 121/121/121 124/124/124 113/113/113
f 131/131/131 104/104/104 129/129/129
f 132/132/132 107/107/107 106/106/106
f 107/107/107 108/108/108 133/133/133
f 132/132/132 108/108/108 107/107/107
f 133/133/133 109/109/109 135/135/135
f 136/136/136 109/109/109 110/110/110
f 134/134/134 110/110/110 109/109/109
f 139/139/139 110/110/110 137/137/137
f 128/128/128 138/138/138 111/111/111
f 111/111/111 138/138/138 139/139/139
f 128/128/128 111/111/111 105/105/105
f 130/130/130 111/111/111 139/139/139
f 141/141/141 128/128/128 127/127/127
f 143/143/143 126/126/126 106/106/106
f 144/144/144 143/143/143 107/107/107
f 144/144/144 133/133/133 145/145/145
f 145/145/145 135/135/135 146/146/146
f 135/135/135 136/136/136 147/147/147
f 147/147/147 136/136/136 148/148/148
f 148/148/148 136/136/136 138/138/138
f 142/142/142 148/148/148 128/128/128
f 116/116/116 142/142/142 141/141/141
f 115/115/115 144/144/144 120/120/120
f 120/120/120 145/145/145 122/122/122
f 145/145/145 120/120/120 144/144/144
f 122/122/122 145/145/145 123/123/123
f 125/125/125 146/146/146 147/147/147
f 125/125/125 147/147/147 148/148/148
f 114/114/114 148/148/148 142/142/142
f 34/34/34 28/28/28 31/31/31
f 34/34/34 35/35/35 1/1/1
f 2/2/2 38/38/38 39/39/39
f 11/11/11 56/56/56 9/9/9
f 58/58/58 53/53/53 10/10/10
f 21/21/21 22/22/22 18/18/18
f 14/14/14 17/17/17 26/26/26
f 23/23/23 26/26/26 17/17/17
f 36/36/36 34/34/34 1/1/1
f 35/35/35 37/37/37 1/1/1
f 36/36/36 1/1/1 39/39/39
f 42/42/42 40/40/40 2/2/2
f 2/2/2 41/41/41 43/43/43
f 41/41/41 44/44/44 43/43/43
f 46/46/46 42/42/42 43/43/43
f 44/44/44 3/3/3 43/43/43
f 45/45/45 46/46/46 48/48/48
f 30/30/30 46/46/46 3/3/3
f 47/47/47 48/48/48 5/5/5
f 48/48/48 29/29/29 5/5/5
f 33/33/33 6/6/6 4/4/4
f 11/11/11 6/6/6 49/49/49
f 36/36/36 49/49/49 6/6/6
f 38/38/38 51/51/51 36/36/36
f 12/12/12 50/50/50 7/7/7
f 50/50/50 51/51/51 7/7/7
f 38/38/38 40/40/40 7/7/7
f 40/40/40 42/42/42 8/8/8
f 53/53/53 52/52/52 8/8/8
f 47/47/47 53/53/53 45/45/45
f 45/45/45 48/48/48 47/47/47
f 20/20/20 16/16/16 55/55/55
f 54/54/54 9/9/9 56/56/56
f 6/6/6 9/9/9 4/4/4
f 18/18/18 56/56/56 21/21/21
f 25/25/25 21/21/21 11/11/11
f 12/12/12 25/25/25 50/50/50
f 57/57/57 25/25/25 12/12/12
f 13/13/13 57/57/57 12/12/12
f 7/7/7 8/8/8 13/13/13
f 15/15/15 52/52/52 58/58/58
f 53/53/53 47/47/47 10/10/10
f 74/74/74 76/76/76 71/71/71
f 78/78/78 72/72/72 75/75/75
f 72/72/72 78/78/78 70/70/70
f 86/86/86 83/83/83 84/84/84
f 80/80/80 82/82/82 59/59/59
f 87/87/87 59/59/59 88/88/88
f 59/59/59 89/89/89 60/60/60
f 88/88/88 60/60/60 61/61/61
f 60/60/60 90/90/90 61/61/61
f 63/63/63 61/61/61 91/91/91
f 91/91/91 61/61/61 62/62/62
f 93/93/93 91/91/91 62/62/62
f 94/94/94 93/93/93 62/62/62
f 95/95/95 96/96/96 93/93/93
f 84/84/84 97/97/97 96/96/96
f 84/84/84 83/83/83 97/97/97
f 101/101/101 98/98/98 80/80/80
f 102/102/102 101/101/101 87/87/87
f 63/63/63 102/102/102 88/88/88
f 76/76/76 63/63/63 103/103/103
f 91/91/91 64/64/64 63/63/63
f 91/91/91 93/93/93 65/65/65
f 67/67/67 65/65/65 96/96/96
f 68/68/68 96/96/96 100/100/100
f 96/96/96 97/97/97 100/100/100
f 97/97/97 83/83/83 100/100/100
f 69/69/69 66/66/66 73/73/73
f 71/71/71 98/98/98 101/101/101
f 71/71/71 101/101/101 102/102/102
f 74/74/74 102/102/102 76/76/76
f 79/79/79 77/77/77 103/103/103
f 69/69/69 79/79/79 67/67/67
f 66/66/66 69/69/69 68/68/68
f 144/144/144 107/107/107 133/133/133
f 120/120/120 122/122/122 117/117/117
f 123/123/123 125/125/125 122/122/122
f 119/119/119 112/112/112 114/114/114
f 118/118/118 121/121/121 113/113/113
f 127/127/127 128/128/128 105/105/105
f 126/126/126 104/104/104 106/106/106
f 104/104/104 131/131/131 106/106/106
f 131/131/131 132/132/132 106/106/106
f 133/133/133 108/108/108 109/109/109
f 132/132/132 134/134/134 108/108/108
f 108/108/108 134/134/134 109/109/109
f 136/136/136 135/135/135 109/109/109
f 137/137/137 110/110/110 134/134/134
f 138/138/138 136/136/136 110/110/110
f 110/110/110 139/139/139 138/138/138
f 130/130/130 105/105/105 111/111/111
f 141/141/141 142/142/142 128/128/128
f 143/143/143 140/140/140 126/126/126
f 107/107/107 143/143/143 106/106/106
f 145/145/145 133/133/133 135/135/135
f 146/146/146 135/135/135 147/147/147
f 128/128/128 148/148/148 138/138/138
f 116/116/116 114/114/114 142/142/142
f 115/115/115 140/140/140 143/143/143
f 115/115/115 143/143/143 144/144/144
f 123/123/123 145/145/145 146/146/146
f 125/125/125 123/123/123 146/146/146
f 112/112/112 125/125/125 148/148/148
f 114/114/114 112/112/112 148/148/148
