mtllib stem.mtl
o stem
v 0.00000 0.00400 -0.02739
v 0.00000 0.00400 -0.02739
v 0.00000 0.00400 -0.02739
v 0.00000 0.00400 0.02261
v 0.00000 0.00400 0.02261
v 0.00000 0.00400 0.02261
v 0.00283 0.00283 -0.02739
v 0.00283 0.00283 -0.02739
v 0.00283 0.00283 0.02261
v 0.00283 0.00283 0.02261
v 0.00400 -0.00000 -0.02739
v 0.00400 -0.00000 -0.02739
v 0.00400 -0.00000 0.02261
v 0.00400 -0.00000 0.02261
v 0.00283 -0.00283 -0.02739
v 0.00283 -0.00283 -0.02739
v 0.00283 -0.00283 0.02261
v 0.00283 -0.00283 0.02261
v -0.00000 -0.00400 -0.02739
v -0.00000 -0.00400 -0.02739
v -0.00000 -0.00400 0.02261
v -0.00000 -0.00400 0.02261
v -0.00283 -0.00283 -0.02739
v -0.00283 -0.00283 -0.02739
v -0.00283 -0.00283 0.02261
v -0.00283 -0.00283 0.02261
v -0.00400 0.00000 -0.02739
v -0.00400 0.00000 -0.02739
v -0.00400 0.00000 0.02261
v -0.00400 0.00000 0.02261
v -0.00283 0.00283 -0.02739
v -0.00283 0.00283 -0.02739
v -0.00283 0.00283 0.02261
v -0.00283 0.00283 0.02261
vn -0.3827 0.9239 -0.0000
vn 0.0000 0.0000 -1.0000
vn 0.3827 0.9239 -0.0000
vn -0.3827 0.9239 -0.0000
vn 0.0000 0.0000 1.0000
vn 0.3827 0.9239 -0.0000
vn 0.7071 0.7071 -0.0000
vn 0.0000 0.0000 -1.0000
vn 0.0000 0.0000 1.0000
vn 0.7071 0.7071 -0.0000
vn 1.0000 -0.0000 0.0000
vn 0.0000 0.0000 -1.0000
vn 0.0000 0.0000 1.0000
vn 1.0000 -0.0000 -0.0000
vn 0.7071 -0.7071 0.0000
vn 0.0000 0.0000 -1.0000
vn 0.0000 0.0000 1.0000
vn 0.7071 -0.7071 0.0000
vn -0.0000 -1.0000 0.0000
vn 0.0000 0.0000 -1.0000
vn 0.0000 0.0000 1.0000
vn -0.0000 -1.0000 0.0000
vn -0.7071 -0.7071 0.0000
vn 0.0000 0.0000 -1.0000
vn 0.0000 0.0000 1.0000
vn -0.7071 -0.7071 0.0000
vn -1.0000 -0.0000 -0.0000
vn 0.0000 0.0000 -1.0000
vn 0.0000 0.0000 1.0000
vn -1.0000 -0.0000 0.0000
vn -0.7071 0.7071 -0.0000
vn 0.0000 0.0000 -1.0000
vn 0.0000 0.0000 1.0000
vn -0.7071 0.7071 -0.0000
usemtl stem
f 3//3 6//6 10//10
f 3//3 10//10 7//7
f 7//7 10//10 14//14
f 7//7 14//14 11//11
f 11//11 14//14 18//18
f 11//11 18//18 15//15
f 15//15 18//18 22//22
f 15//15 22//22 19//19
f 19//19 22//22 26//26
f 19//19 26//26 23//23
f 23//23 26//26 30//30
f 23//23 30//30 27//27
f 13//13 9//9 5//5
f 5//5 33//33 29//29
f 29//29 25//25 21//21
f 21//21 17//17 13//13
f 13//13 5//5 29//29
f 29//29 21//21 13//13
f 27//27 30//30 34//34
f 27//27 34//34 31//31
f 31//31 34//34 4//4
f 31//31 4//4 1//1
f 32//32 2//2 8//8
f 8//8 12//12 16//16
f 16//16 20//20 24//24
f 24//24 28//28 32//32
f 32//32 8//8 16//16
f 16//16 24//24 32//32
