mtllib wire.mtl
o wire
v 3.08812 0.00000 0.92959
v 3.08812 0.00235 0.92862
v 3.08812 0.00235 0.92862
v -3.11266 0.00235 0.92862
v -3.11266 0.00235 0.92862
v -3.11266 0.00000 0.92959
v 3.08812 0.00333 0.92626
v -3.11266 0.00333 0.92626
v 3.08812 0.00235 0.92391
v -3.11266 0.00235 0.92391
v 3.08812 0.00000 0.92293
v -3.11266 0.00000 0.92293
v 3.08812 -0.00235 0.92391
v -3.11266 -0.00235 0.92391
v 3.08812 -0.00333 0.92626
v -3.11266 -0.00333 0.92626
v 3.08812 -0.00235 0.92862
v -3.11266 -0.00235 0.92862
v 3.08812 0.00000 1.84533
v 3.08812 0.00235 1.84435
v 3.08812 0.00235 1.84435
v -3.11275 0.00225 1.84426
v -3.11275 0.00225 1.84426
v -3.11275 -0.00001 1.84521
v 3.08812 0.00333 1.84200
v -3.11274 0.00316 1.84200
v 3.08812 0.00235 1.83964
v -3.11274 0.00223 1.83976
v 3.08812 0.00000 1.83867
v -3.11275 -0.00001 1.83881
v 3.08812 -0.00235 1.83964
v -3.11275 -0.00227 1.83973
v 3.08812 -0.00333 1.84200
v -3.11275 -0.00322 1.84200
v 3.08812 -0.00235 1.84435
v -3.11275 -0.00228 1.84428
vn 0.0000 0.0000 1.0000
vn 0.0000 0.9239 0.3825
vn 0.0000 0.3825 0.9239
vn 0.0000 0.9239 0.3825
vn 0.0000 0.3825 0.9239
vn 0.0000 0.0000 1.0000
vn 0.0000 1.0000 0.0000
vn 0.0000 1.0000 -0.0000
vn 0.0000 0.7071 -0.7071
vn 0.0000 0.7071 -0.7071
vn 0.0000 -0.0000 -1.0000
vn 0.0000 0.0000 -1.0000
vn 0.0000 -0.7071 -0.7071
vn 0.0000 -0.7071 -0.7071
vn 0.0000 -1.0000 -0.0000
vn 0.0000 -1.0000 0.0000
vn 0.0000 -0.7071 0.7071
vn 0.0000 -0.7071 0.7071
vn -0.0000 0.0000 1.0000
vn -0.0000 0.9239 0.3825
vn -0.0000 0.3826 0.9239
vn -0.0000 0.9273 0.3744
vn -0.0000 0.3888 0.9213
vn -0.0000 0.0040 1.0000
vn -0.0000 1.0000 -0.0000
vn -0.0000 1.0000 -0.0042
vn -0.0000 0.7071 -0.7071
vn -0.0000 0.7092 -0.7050
vn -0.0000 0.0000 -1.0000
vn -0.0000 0.0063 -1.0000
vn -0.0000 -0.7071 -0.7071
vn -0.0000 -0.7038 -0.7104
vn -0.0000 -1.0000 -0.0000
vn -0.0000 -1.0000 -0.0019
vn -0.0000 -0.7071 0.7071
vn -0.0000 -0.7069 0.7073
usemtl wire
f 3//3 6//6 1//1
f 7//7 4//4 2//2
f 9//9 8//8 7//7
f 11//11 10//10 9//9
f 13//13 12//12 11//11
f 15//15 14//14 13//13
f 17//17 16//16 15//15
f 1//1 18//18 17//17
f 19//19 23//23 24//24
f 20//20 26//26 22//22
f 27//27 26//26 25//25
f 29//29 28//28 27//27
f 31//31 30//30 29//29
f 33//33 32//32 31//31
f 35//35 34//34 33//33
f 35//35 24//24 36//36
f 3//3 5//5 6//6
f 7//7 8//8 4//4
f 9//9 10//10 8//8
f 11//11 12//12 10//10
f 13//13 14//14 12//12
f 15//15 16//16 14//14
f 17//17 18//18 16//16
f 1//1 6//6 18//18
f 19//19 21//21 23//23
f 20//20 25//25 26//26
f 27//27 28//28 26//26
f 29//29 30//30 28//28
f 31//31 32//32 30//30
f 33//33 34//34 32//32
f 35//35 36//36 34//34
f 35//35 19//19 24//24
